<?xml version="1.0" encoding="utf-8" standalone="no"?>
<!DOCTYPE svg PUBLIC "-//W3C//DTD SVG 1.1//EN"
  "http://www.w3.org/Graphics/SVG/1.1/DTD/svg11.dtd">
<!-- Created with matplotlib (http://matplotlib.org/) -->
<svg height="288pt" version="1.1" viewBox="0 0 432 288" width="432pt" xmlns="http://www.w3.org/2000/svg" xmlns:xlink="http://www.w3.org/1999/xlink">
 <defs>
  <style type="text/css">
*{stroke-linecap:butt;stroke-linejoin:round;}
  </style>
 </defs>
 <g id="figure_1">
  <g id="patch_1">
   <path d="M 0 288 
L 432 288 
L 432 0 
L 0 0 
z
" style="fill:#ffffff;"/>
  </g>
  <g id="axes_1">
   <g id="patch_2">
    <path d="M 54 252 
L 388.8 252 
L 388.8 34.56 
L 54 34.56 
z
" style="fill:#ffffff;"/>
   </g>
   <g id="matplotlib.axis_1">
    <g id="xtick_1">
     <g id="line2d_1">
      <defs>
       <path d="M 0 0 
L 0 3.5 
" id="mfe9da10cc8" style="stroke:#000000;stroke-width:0.8;"/>
      </defs>
      <g>
       <use style="stroke:#000000;stroke-width:0.8;" x="69.218182" xlink:href="#mfe9da10cc8" y="252"/>
      </g>
     </g>
     <g id="text_1">
      <!-- −3 -->
      <defs>
       <path d="M 10.59375 35.5 
L 73.1875 35.5 
L 73.1875 27.203125 
L 10.59375 27.203125 
z
" id="DejaVuSans-2212"/>
       <path d="M 40.578125 39.3125 
Q 47.65625 37.796875 51.625 33 
Q 55.609375 28.21875 55.609375 21.1875 
Q 55.609375 10.40625 48.1875 4.484375 
Q 40.765625 -1.421875 27.09375 -1.421875 
Q 22.515625 -1.421875 17.65625 -0.515625 
Q 12.796875 0.390625 7.625 2.203125 
L 7.625 11.71875 
Q 11.71875 9.328125 16.59375 8.109375 
Q 21.484375 6.890625 26.8125 6.890625 
Q 36.078125 6.890625 40.9375 10.546875 
Q 45.796875 14.203125 45.796875 21.1875 
Q 45.796875 27.640625 41.28125 31.265625 
Q 36.765625 34.90625 28.71875 34.90625 
L 20.21875 34.90625 
L 20.21875 43.015625 
L 29.109375 43.015625 
Q 36.375 43.015625 40.234375 45.921875 
Q 44.09375 48.828125 44.09375 54.296875 
Q 44.09375 59.90625 40.109375 62.90625 
Q 36.140625 65.921875 28.71875 65.921875 
Q 24.65625 65.921875 20.015625 65.03125 
Q 15.375 64.15625 9.8125 62.3125 
L 9.8125 71.09375 
Q 15.4375 72.65625 20.34375 73.4375 
Q 25.25 74.21875 29.59375 74.21875 
Q 40.828125 74.21875 47.359375 69.109375 
Q 53.90625 64.015625 53.90625 55.328125 
Q 53.90625 49.265625 50.4375 45.09375 
Q 46.96875 40.921875 40.578125 39.3125 
" id="DejaVuSans-33"/>
      </defs>
      <g transform="translate(61.847088 266.598437)scale(0.1 -0.1)">
       <use xlink:href="#DejaVuSans-2212"/>
       <use x="83.789062" xlink:href="#DejaVuSans-33"/>
      </g>
     </g>
    </g>
    <g id="xtick_2">
     <g id="line2d_2">
      <g>
       <use style="stroke:#000000;stroke-width:0.8;" x="119.945455" xlink:href="#mfe9da10cc8" y="252"/>
      </g>
     </g>
     <g id="text_2">
      <!-- −2 -->
      <defs>
       <path d="M 19.1875 8.296875 
L 53.609375 8.296875 
L 53.609375 0 
L 7.328125 0 
L 7.328125 8.296875 
Q 12.9375 14.109375 22.625 23.890625 
Q 32.328125 33.6875 34.8125 36.53125 
Q 39.546875 41.84375 41.421875 45.53125 
Q 43.3125 49.21875 43.3125 52.78125 
Q 43.3125 58.59375 39.234375 62.25 
Q 35.15625 65.921875 28.609375 65.921875 
Q 23.96875 65.921875 18.8125 64.3125 
Q 13.671875 62.703125 7.8125 59.421875 
L 7.8125 69.390625 
Q 13.765625 71.78125 18.9375 73 
Q 24.125 74.21875 28.421875 74.21875 
Q 39.75 74.21875 46.484375 68.546875 
Q 53.21875 62.890625 53.21875 53.421875 
Q 53.21875 48.921875 51.53125 44.890625 
Q 49.859375 40.875 45.40625 35.40625 
Q 44.1875 33.984375 37.640625 27.21875 
Q 31.109375 20.453125 19.1875 8.296875 
" id="DejaVuSans-32"/>
      </defs>
      <g transform="translate(112.574361 266.598437)scale(0.1 -0.1)">
       <use xlink:href="#DejaVuSans-2212"/>
       <use x="83.789062" xlink:href="#DejaVuSans-32"/>
      </g>
     </g>
    </g>
    <g id="xtick_3">
     <g id="line2d_3">
      <g>
       <use style="stroke:#000000;stroke-width:0.8;" x="170.672727" xlink:href="#mfe9da10cc8" y="252"/>
      </g>
     </g>
     <g id="text_3">
      <!-- −1 -->
      <defs>
       <path d="M 12.40625 8.296875 
L 28.515625 8.296875 
L 28.515625 63.921875 
L 10.984375 60.40625 
L 10.984375 69.390625 
L 28.421875 72.90625 
L 38.28125 72.90625 
L 38.28125 8.296875 
L 54.390625 8.296875 
L 54.390625 0 
L 12.40625 0 
z
" id="DejaVuSans-31"/>
      </defs>
      <g transform="translate(163.301634 266.598437)scale(0.1 -0.1)">
       <use xlink:href="#DejaVuSans-2212"/>
       <use x="83.789062" xlink:href="#DejaVuSans-31"/>
      </g>
     </g>
    </g>
    <g id="xtick_4">
     <g id="line2d_4">
      <g>
       <use style="stroke:#000000;stroke-width:0.8;" x="221.4" xlink:href="#mfe9da10cc8" y="252"/>
      </g>
     </g>
     <g id="text_4">
      <!-- 0 -->
      <defs>
       <path d="M 31.78125 66.40625 
Q 24.171875 66.40625 20.328125 58.90625 
Q 16.5 51.421875 16.5 36.375 
Q 16.5 21.390625 20.328125 13.890625 
Q 24.171875 6.390625 31.78125 6.390625 
Q 39.453125 6.390625 43.28125 13.890625 
Q 47.125 21.390625 47.125 36.375 
Q 47.125 51.421875 43.28125 58.90625 
Q 39.453125 66.40625 31.78125 66.40625 
M 31.78125 74.21875 
Q 44.046875 74.21875 50.515625 64.515625 
Q 56.984375 54.828125 56.984375 36.375 
Q 56.984375 17.96875 50.515625 8.265625 
Q 44.046875 -1.421875 31.78125 -1.421875 
Q 19.53125 -1.421875 13.0625 8.265625 
Q 6.59375 17.96875 6.59375 36.375 
Q 6.59375 54.828125 13.0625 64.515625 
Q 19.53125 74.21875 31.78125 74.21875 
" id="DejaVuSans-30"/>
      </defs>
      <g transform="translate(218.21875 266.598437)scale(0.1 -0.1)">
       <use xlink:href="#DejaVuSans-30"/>
      </g>
     </g>
    </g>
    <g id="xtick_5">
     <g id="line2d_5">
      <g>
       <use style="stroke:#000000;stroke-width:0.8;" x="272.127273" xlink:href="#mfe9da10cc8" y="252"/>
      </g>
     </g>
     <g id="text_5">
      <!-- 1 -->
      <g transform="translate(268.946023 266.598437)scale(0.1 -0.1)">
       <use xlink:href="#DejaVuSans-31"/>
      </g>
     </g>
    </g>
    <g id="xtick_6">
     <g id="line2d_6">
      <g>
       <use style="stroke:#000000;stroke-width:0.8;" x="322.854545" xlink:href="#mfe9da10cc8" y="252"/>
      </g>
     </g>
     <g id="text_6">
      <!-- 2 -->
      <g transform="translate(319.673295 266.598437)scale(0.1 -0.1)">
       <use xlink:href="#DejaVuSans-32"/>
      </g>
     </g>
    </g>
    <g id="xtick_7">
     <g id="line2d_7">
      <g>
       <use style="stroke:#000000;stroke-width:0.8;" x="373.581818" xlink:href="#mfe9da10cc8" y="252"/>
      </g>
     </g>
     <g id="text_7">
      <!-- 3 -->
      <g transform="translate(370.400568 266.598437)scale(0.1 -0.1)">
       <use xlink:href="#DejaVuSans-33"/>
      </g>
     </g>
    </g>
   </g>
   <g id="matplotlib.axis_2">
    <g id="ytick_1">
     <g id="line2d_8">
      <defs>
       <path d="M 0 0 
L -3.5 0 
" id="m16404864e5" style="stroke:#000000;stroke-width:0.8;"/>
      </defs>
      <g>
       <use style="stroke:#000000;stroke-width:0.8;" x="54" xlink:href="#m16404864e5" y="215.543371"/>
      </g>
     </g>
     <g id="text_8">
      <!-- −6 -->
      <defs>
       <path d="M 33.015625 40.375 
Q 26.375 40.375 22.484375 35.828125 
Q 18.609375 31.296875 18.609375 23.390625 
Q 18.609375 15.53125 22.484375 10.953125 
Q 26.375 6.390625 33.015625 6.390625 
Q 39.65625 6.390625 43.53125 10.953125 
Q 47.40625 15.53125 47.40625 23.390625 
Q 47.40625 31.296875 43.53125 35.828125 
Q 39.65625 40.375 33.015625 40.375 
M 52.59375 71.296875 
L 52.59375 62.3125 
Q 48.875 64.0625 45.09375 64.984375 
Q 41.3125 65.921875 37.59375 65.921875 
Q 27.828125 65.921875 22.671875 59.328125 
Q 17.53125 52.734375 16.796875 39.40625 
Q 19.671875 43.65625 24.015625 45.921875 
Q 28.375 48.1875 33.59375 48.1875 
Q 44.578125 48.1875 50.953125 41.515625 
Q 57.328125 34.859375 57.328125 23.390625 
Q 57.328125 12.15625 50.6875 5.359375 
Q 44.046875 -1.421875 33.015625 -1.421875 
Q 20.359375 -1.421875 13.671875 8.265625 
Q 6.984375 17.96875 6.984375 36.375 
Q 6.984375 53.65625 15.1875 63.9375 
Q 23.390625 74.21875 37.203125 74.21875 
Q 40.921875 74.21875 44.703125 73.484375 
Q 48.484375 72.75 52.59375 71.296875 
" id="DejaVuSans-36"/>
      </defs>
      <g transform="translate(32.257812 219.34259)scale(0.1 -0.1)">
       <use xlink:href="#DejaVuSans-2212"/>
       <use x="83.789062" xlink:href="#DejaVuSans-36"/>
      </g>
     </g>
    </g>
    <g id="ytick_2">
     <g id="line2d_9">
      <g>
       <use style="stroke:#000000;stroke-width:0.8;" x="54" xlink:href="#m16404864e5" y="168.47725"/>
      </g>
     </g>
     <g id="text_9">
      <!-- −4 -->
      <defs>
       <path d="M 37.796875 64.3125 
L 12.890625 25.390625 
L 37.796875 25.390625 
z
M 35.203125 72.90625 
L 47.609375 72.90625 
L 47.609375 25.390625 
L 58.015625 25.390625 
L 58.015625 17.1875 
L 47.609375 17.1875 
L 47.609375 0 
L 37.796875 0 
L 37.796875 17.1875 
L 4.890625 17.1875 
L 4.890625 26.703125 
z
" id="DejaVuSans-34"/>
      </defs>
      <g transform="translate(32.257812 172.276469)scale(0.1 -0.1)">
       <use xlink:href="#DejaVuSans-2212"/>
       <use x="83.789062" xlink:href="#DejaVuSans-34"/>
      </g>
     </g>
    </g>
    <g id="ytick_3">
     <g id="line2d_10">
      <g>
       <use style="stroke:#000000;stroke-width:0.8;" x="54" xlink:href="#m16404864e5" y="121.411129"/>
      </g>
     </g>
     <g id="text_10">
      <!-- −2 -->
      <g transform="translate(32.257812 125.210348)scale(0.1 -0.1)">
       <use xlink:href="#DejaVuSans-2212"/>
       <use x="83.789062" xlink:href="#DejaVuSans-32"/>
      </g>
     </g>
    </g>
    <g id="ytick_4">
     <g id="line2d_11">
      <g>
       <use style="stroke:#000000;stroke-width:0.8;" x="54" xlink:href="#m16404864e5" y="74.345009"/>
      </g>
     </g>
     <g id="text_11">
      <!-- 0 -->
      <g transform="translate(40.6375 78.144227)scale(0.1 -0.1)">
       <use xlink:href="#DejaVuSans-30"/>
      </g>
     </g>
    </g>
   </g>
   <g id="line2d_12">
    <path clip-path="url(#p7a010f92c5)" d="M 69.218182 168.940987 
L 71.614745 199.912234 
L 74.011308 175.030817 
L 76.407871 153.402702 
L 78.804434 109.073686 
L 81.200996 170.821913 
L 83.597571 156.552312 
L 85.994134 83.507965 
L 88.390697 119.325216 
L 90.78726 169.140403 
L 93.183823 190.953352 
L 95.580386 184.310115 
L 97.976949 165.900477 
L 100.373512 154.719111 
L 102.770075 125.101585 
L 105.16665 139.817698 
L 107.563213 132.481459 
L 109.959776 152.076126 
L 112.356339 125.558343 
L 114.752902 147.718842 
L 117.149464 119.197847 
L 119.546027 122.104524 
L 121.94259 115.299934 
L 124.339153 98.494502 
L 126.735722 102.441861 
L 129.132285 87.818122 
L 131.528848 143.222849 
L 133.925411 66.493737 
L 136.321974 117.387189 
L 138.718537 119.278377 
L 141.115106 117.258457 
L 143.511669 127.359193 
L 148.304795 94.810331 
L 150.701357 125.677453 
L 153.097926 112.048904 
L 155.494489 93.715548 
L 157.891052 87.511642 
L 160.287615 87.353004 
L 162.684178 88.011891 
L 165.080747 85.264989 
L 167.47731 77.602115 
L 169.873873 73.804428 
L 172.270436 79.196359 
L 174.666999 63.845825 
L 177.063562 73.453693 
L 179.460125 62.809246 
L 181.856688 71.406099 
L 184.253263 63.368092 
L 186.649826 70.271666 
L 189.046388 58.472678 
L 191.442951 54.127883 
L 193.839514 56.979834 
L 196.236077 52.036023 
L 198.63264 51.356965 
L 201.029203 49.590439 
L 203.425766 48.866807 
L 205.822329 49.030191 
L 208.218892 51.571205 
L 210.615467 49.89489 
L 213.01203 50.896409 
L 215.408593 48.539248 
L 217.805156 47.215671 
L 220.201719 48.39758 
L 222.598281 51.665202 
L 224.994844 48.350616 
L 227.391407 45.750524 
L 229.78797 51.073023 
L 232.184533 50.351036 
L 234.581108 48.919032 
L 236.977671 48.348966 
L 239.374234 53.987123 
L 241.770797 49.8589 
L 244.16736 54.163254 
L 246.563923 51.041018 
L 248.960486 57.434669 
L 251.357049 58.017002 
L 253.753612 64.615214 
L 256.150174 65.199361 
L 258.546737 66.694532 
L 260.943312 61.384531 
L 263.339875 68.673718 
L 265.736438 77.521187 
L 268.133001 76.558047 
L 270.529564 74.830838 
L 272.926127 82.925785 
L 275.32269 75.799081 
L 277.719253 84.766533 
L 280.115816 68.432029 
L 282.512379 87.31688 
L 284.908942 92.751335 
L 287.305505 95.321838 
L 289.702067 83.181233 
L 292.09863 103.204268 
L 294.495193 91.493412 
L 296.891756 86.389781 
L 299.288343 95.701832 
L 301.684906 105.985176 
L 304.081469 83.428458 
L 306.478032 100.625918 
L 308.874595 142.306479 
L 311.271158 131.591122 
L 313.667721 119.857342 
L 316.064284 90.812529 
L 318.460847 122.435142 
L 320.85741 114.99929 
L 323.253973 92.650536 
L 325.650536 135.713127 
L 328.047098 120.835234 
L 330.443661 146.848182 
L 332.840224 137.780727 
L 335.236787 129.842194 
L 337.63335 156.044643 
L 340.029913 131.905132 
L 342.426476 150.641521 
L 344.823039 120.095825 
L 347.219602 156.471103 
L 349.616189 114.303521 
L 352.012752 164.846402 
L 354.409315 149.03777 
L 356.805878 148.482584 
L 359.202441 198.578925 
L 361.599004 153.263455 
L 363.995566 116.393278 
L 366.392129 185.729425 
L 368.788692 122.972901 
L 371.185255 196.229021 
L 373.581818 166.450226 
L 373.581818 166.450226 
" style="fill:none;stroke:#008000;stroke-linecap:square;stroke-width:0.3;"/>
   </g>
   <g id="line2d_13">
    <path clip-path="url(#p7a010f92c5)" d="M 69.218182 131.682661 
L 71.614745 161.969058 
L 74.011308 214.609579 
L 76.407871 147.913371 
L 78.804434 158.891567 
L 81.200996 146.024567 
L 83.597571 153.186869 
L 85.994134 158.90482 
L 88.390697 128.11494 
L 90.78726 130.013955 
L 93.183823 66.975303 
L 95.580386 148.379234 
L 97.976949 130.518471 
L 100.373512 131.047505 
L 102.770075 112.697947 
L 105.16665 154.254779 
L 107.563213 128.858668 
L 109.959776 106.514452 
L 112.356339 116.57929 
L 114.752902 93.314345 
L 117.149464 112.549246 
L 119.546027 102.127655 
L 121.94259 110.267366 
L 124.339153 133.718179 
L 126.735722 155.548577 
L 129.132285 128.681981 
L 131.528848 106.372024 
L 133.925411 94.561305 
L 136.321974 99.814249 
L 138.718537 117.583794 
L 141.115106 127.569426 
L 143.511669 110.382515 
L 145.908232 106.110413 
L 148.304795 87.728608 
L 150.701357 93.218885 
L 153.097926 89.321129 
L 155.494489 79.801723 
L 157.891052 62.444503 
L 160.287615 100.623293 
L 162.684178 85.150343 
L 165.080747 79.160367 
L 167.47731 78.104511 
L 169.873873 64.808556 
L 172.270436 77.577338 
L 174.666999 73.586754 
L 177.063562 81.225 
L 179.460125 68.245193 
L 181.856688 66.090464 
L 184.253263 67.629315 
L 186.649826 61.522425 
L 189.046388 59.945734 
L 191.442951 55.565307 
L 193.839514 56.398877 
L 196.236077 52.95018 
L 198.63264 50.909134 
L 201.029203 50.715202 
L 203.425766 48.797953 
L 205.822329 50.272393 
L 208.218892 53.204395 
L 210.615467 49.295536 
L 213.01203 47.03484 
L 215.408593 46.379452 
L 217.805156 46.001854 
L 220.201719 47.065907 
L 222.598281 48.261972 
L 224.994844 47.30636 
L 227.391407 46.962874 
L 229.78797 47.016482 
L 232.184533 49.715504 
L 234.581108 48.506257 
L 236.977671 50.134173 
L 239.374234 51.96375 
L 241.770797 55.101838 
L 244.16736 52.91362 
L 246.563923 51.932695 
L 248.960486 58.528553 
L 251.357049 56.305751 
L 253.753612 59.47285 
L 256.150174 69.712972 
L 258.546737 62.734298 
L 260.943312 68.92816 
L 263.339875 67.146347 
L 265.736438 62.362151 
L 268.133001 73.273848 
L 270.529564 87.619266 
L 272.926127 82.110615 
L 275.32269 69.839793 
L 280.115816 99.294254 
L 282.512379 74.697214 
L 284.908942 84.91008 
L 287.305505 84.254187 
L 289.702067 90.137138 
L 292.09863 104.475893 
L 294.495193 86.285352 
L 296.891756 118.63439 
L 299.288343 86.429685 
L 301.684906 90.022026 
L 304.081469 104.589504 
L 306.478032 97.562235 
L 308.874595 81.918843 
L 311.271158 110.094315 
L 313.667721 90.188356 
L 316.064284 130.56835 
L 318.460847 93.321426 
L 320.85741 117.891419 
L 323.253973 139.785566 
L 325.650536 129.733621 
L 328.047098 89.473601 
L 330.443661 128.149137 
L 332.840224 109.366493 
L 335.236787 132.305782 
L 337.63335 147.769613 
L 340.029913 142.991901 
L 342.426476 162.825747 
L 344.823039 195.390297 
L 347.219602 137.570291 
L 349.616189 124.897209 
L 352.012752 153.563045 
L 354.409315 111.908911 
L 356.805878 186.185105 
L 359.202441 140.851013 
L 361.599004 140.808882 
L 363.995566 121.938503 
L 366.392129 144.665949 
L 368.788692 139.330649 
L 371.185255 179.622169 
L 373.581818 145.7335 
L 373.581818 145.7335 
" style="fill:none;stroke:#008000;stroke-linecap:square;stroke-width:0.3;"/>
   </g>
   <g id="line2d_14">
    <path clip-path="url(#p7a010f92c5)" d="M 69.218182 143.517283 
L 71.614745 117.442937 
L 74.011308 179.582187 
L 76.407871 125.791552 
L 78.804434 157.088282 
L 81.200996 175.185886 
L 83.597571 152.492295 
L 85.994134 141.383813 
L 88.390697 100.264442 
L 90.78726 148.218757 
L 93.183823 130.232386 
L 95.580386 171.044053 
L 97.976949 93.575749 
L 100.373512 140.529906 
L 102.770075 134.939195 
L 105.16665 137.423773 
L 107.563213 121.277028 
L 109.959776 134.754401 
L 112.356339 124.077764 
L 114.752902 142.067546 
L 117.149464 130.970638 
L 119.546027 110.715332 
L 121.94259 116.239651 
L 124.339153 122.428268 
L 126.735722 121.169117 
L 129.132285 86.74632 
L 131.528848 155.48769 
L 133.925411 124.083554 
L 136.321974 120.89294 
L 138.718537 125.38386 
L 141.115106 105.865163 
L 143.511669 95.221319 
L 145.908232 104.729093 
L 148.304795 91.197735 
L 150.701357 99.488502 
L 153.097926 76.178865 
L 155.494489 94.04563 
L 157.891052 67.244309 
L 160.287615 80.089262 
L 162.684178 83.562593 
L 165.080747 77.47489 
L 167.47731 83.901859 
L 169.873873 68.672514 
L 172.270436 70.356793 
L 174.666999 81.969267 
L 177.063562 58.458866 
L 179.460125 71.27555 
L 181.856688 64.976837 
L 184.253263 65.498838 
L 186.649826 62.371819 
L 189.046388 65.739065 
L 191.442951 59.767404 
L 193.839514 57.19052 
L 196.236077 53.739613 
L 198.63264 55.779447 
L 201.029203 50.772858 
L 203.425766 49.398081 
L 205.822329 49.484845 
L 208.218892 48.798915 
L 210.615467 50.65303 
L 213.01203 49.596972 
L 215.408593 51.291702 
L 217.805156 50.04319 
L 220.201719 47.715143 
L 222.598281 49.095817 
L 224.994844 49.365959 
L 227.391407 51.581234 
L 229.78797 46.248414 
L 232.184533 49.289502 
L 234.581108 47.900928 
L 236.977671 48.071609 
L 239.374234 48.739817 
L 241.770797 52.253535 
L 244.16736 49.808757 
L 246.563923 58.488768 
L 248.960486 52.518144 
L 251.357049 56.529102 
L 253.753612 62.934123 
L 256.150174 60.286768 
L 258.546737 73.944995 
L 260.943312 73.845437 
L 263.339875 63.365863 
L 265.736438 69.628677 
L 268.133001 70.19204 
L 270.529564 70.514471 
L 272.926127 80.062774 
L 275.32269 83.260807 
L 277.719253 69.543486 
L 280.115816 82.763781 
L 282.512379 99.982801 
L 284.908942 85.970548 
L 287.305505 92.65023 
L 289.702067 81.098635 
L 292.09863 84.291159 
L 294.495193 109.853424 
L 296.891756 97.876788 
L 299.288343 121.896625 
L 301.684906 114.221425 
L 304.081469 106.048538 
L 306.478032 103.828954 
L 308.874595 116.013893 
L 311.271158 105.455216 
L 313.667721 102.720512 
L 316.064284 136.137695 
L 318.460847 129.067915 
L 320.85741 107.806286 
L 323.253973 168.859452 
L 325.650536 124.794174 
L 328.047098 115.903794 
L 330.443661 145.362418 
L 332.840224 124.472394 
L 335.236787 146.96723 
L 337.63335 125.506342 
L 340.029913 159.211468 
L 342.426476 156.643027 
L 344.823039 165.287641 
L 347.219602 167.315691 
L 349.616189 136.777525 
L 352.012752 158.206588 
L 354.409315 129.712592 
L 356.805878 167.459213 
L 359.202441 103.576741 
L 361.599004 171.303661 
L 363.995566 149.116741 
L 366.392129 226.502911 
L 368.788692 189.181869 
L 371.185255 166.023801 
L 373.581818 162.45223 
L 373.581818 162.45223 
" style="fill:none;stroke:#008000;stroke-linecap:square;stroke-width:0.3;"/>
   </g>
   <g id="line2d_15">
    <path clip-path="url(#p7a010f92c5)" d="M 69.218182 169.793278 
L 71.614745 146.649545 
L 74.011308 94.366933 
L 76.407871 165.576537 
L 78.804434 141.648588 
L 81.200996 156.385966 
L 83.597571 166.141031 
L 85.994134 165.621568 
L 88.390697 127.521185 
L 90.78726 112.727538 
L 93.183823 156.733 
L 95.580386 142.62482 
L 97.976949 144.814851 
L 100.373512 126.320295 
L 102.770075 122.878428 
L 105.16665 134.587987 
L 107.563213 144.231426 
L 109.959776 111.399071 
L 112.356339 109.292151 
L 114.752902 138.987531 
L 117.149464 92.382279 
L 119.546027 123.319447 
L 121.94259 110.255814 
L 124.339153 128.784282 
L 126.735722 119.785092 
L 129.132285 89.771022 
L 131.528848 115.887573 
L 133.925411 99.056051 
L 136.321974 103.669969 
L 138.718537 113.842483 
L 141.115106 96.442346 
L 143.511669 100.142751 
L 145.908232 105.825411 
L 148.304795 107.626323 
L 150.701357 107.754056 
L 153.097926 80.983552 
L 155.494489 94.338414 
L 157.891052 74.222399 
L 160.287615 77.415563 
L 162.684178 70.895337 
L 165.080747 80.71194 
L 167.47731 66.919579 
L 169.873873 73.624728 
L 172.270436 86.170997 
L 174.666999 64.880825 
L 177.063562 83.616209 
L 179.460125 81.748034 
L 181.856688 72.268141 
L 184.253263 59.372811 
L 186.649826 66.501167 
L 189.046388 58.152477 
L 191.442951 55.462951 
L 193.839514 55.316502 
L 196.236077 51.820179 
L 198.63264 50.974179 
L 201.029203 52.062645 
L 203.425766 52.221613 
L 205.822329 49.54902 
L 208.218892 48.107307 
L 210.615467 47.666335 
L 213.01203 49.970436 
L 217.805156 49.404945 
L 220.201719 48.924424 
L 222.598281 46.468522 
L 224.994844 48.826797 
L 227.391407 50.624438 
L 229.78797 48.819189 
L 232.184533 49.74149 
L 234.581108 50.226355 
L 236.977671 46.865643 
L 239.374234 47.297102 
L 241.770797 49.768882 
L 244.16736 54.803897 
L 246.563923 53.708543 
L 248.960486 56.409037 
L 251.357049 57.223639 
L 253.753612 50.249807 
L 256.150174 66.829972 
L 258.546737 57.812912 
L 260.943312 65.541441 
L 263.339875 72.655377 
L 265.736438 76.780616 
L 268.133001 78.673764 
L 270.529564 68.122944 
L 272.926127 63.607328 
L 275.32269 69.870187 
L 277.719253 76.911398 
L 280.115816 91.594172 
L 282.512379 82.774756 
L 284.908942 106.273315 
L 287.305505 108.555592 
L 289.702067 90.031056 
L 292.09863 110.063131 
L 294.495193 109.927621 
L 296.891756 98.489031 
L 299.288343 121.282408 
L 301.684906 110.217353 
L 304.081469 120.678538 
L 306.478032 135.193125 
L 308.874595 69.888511 
L 311.271158 120.174499 
L 313.667721 124.085742 
L 316.064284 131.118453 
L 318.460847 121.070918 
L 320.85741 107.847188 
L 323.253973 90.980073 
L 325.650536 119.542665 
L 328.047098 120.968416 
L 330.443661 139.500463 
L 332.840224 89.27729 
L 335.236787 140.40036 
L 337.63335 158.671705 
L 340.029913 171.051403 
L 342.426476 157.962993 
L 344.823039 108.800629 
L 347.219602 112.433637 
L 349.616189 161.362842 
L 352.012752 104.347245 
L 354.409315 161.009984 
L 356.805878 92.845258 
L 359.202441 242.116364 
L 361.599004 152.422027 
L 363.995566 182.898873 
L 366.392129 173.570403 
L 368.788692 176.228065 
L 371.185255 179.913073 
L 373.581818 166.302743 
L 373.581818 166.302743 
" style="fill:none;stroke:#008000;stroke-linecap:square;stroke-width:0.3;"/>
   </g>
   <g id="line2d_16">
    <path clip-path="url(#p7a010f92c5)" d="M 69.218182 186.279298 
L 71.614745 228.345135 
L 74.011308 181.140631 
L 76.407871 114.592069 
L 78.804434 124.196094 
L 81.200996 181.571164 
L 83.597571 136.977418 
L 85.994134 137.426971 
L 88.390697 141.219828 
L 90.78726 116.687734 
L 93.183823 149.0826 
L 95.580386 157.289942 
L 97.976949 162.672305 
L 100.373512 106.005201 
L 102.770075 166.825718 
L 105.16665 186.330703 
L 107.563213 167.935372 
L 109.959776 123.528957 
L 112.356339 123.535117 
L 114.752902 143.025223 
L 117.149464 132.960222 
L 119.546027 118.27752 
L 121.94259 104.805079 
L 124.339153 130.631016 
L 126.735722 136.289196 
L 129.132285 84.851308 
L 131.528848 130.575515 
L 133.925411 87.074115 
L 136.321974 85.098542 
L 138.718537 75.90045 
L 141.115106 115.46894 
L 143.511669 103.080137 
L 145.908232 87.818021 
L 148.304795 85.352847 
L 150.701357 94.355282 
L 153.097926 88.858686 
L 155.494489 95.063809 
L 157.891052 90.239531 
L 160.287615 106.365179 
L 165.080747 83.994243 
L 167.47731 76.016618 
L 169.873873 82.321544 
L 174.666999 80.223809 
L 177.063562 82.190105 
L 179.460125 72.034778 
L 181.856688 59.718827 
L 184.253263 68.230528 
L 186.649826 63.624886 
L 191.442951 58.650519 
L 193.839514 52.382658 
L 196.236077 49.415205 
L 198.63264 54.505017 
L 201.029203 54.136568 
L 203.425766 51.880293 
L 205.822329 47.116872 
L 208.218892 47.676827 
L 210.615467 48.03942 
L 213.01203 48.276147 
L 215.408593 49.429158 
L 217.805156 48.305446 
L 220.201719 47.672221 
L 222.598281 49.939268 
L 227.391407 48.112272 
L 229.78797 48.159105 
L 234.581108 47.507599 
L 236.977671 50.365094 
L 239.374234 49.986979 
L 241.770797 49.799595 
L 244.16736 53.562729 
L 246.563923 52.481718 
L 248.960486 56.026616 
L 251.357049 52.60596 
L 253.753612 63.258413 
L 256.150174 67.368985 
L 258.546737 60.961959 
L 260.943312 62.073446 
L 263.339875 68.843507 
L 265.736438 67.53528 
L 268.133001 83.584677 
L 270.529564 72.62426 
L 272.926127 74.252434 
L 275.32269 92.825032 
L 277.719253 81.498662 
L 280.115816 77.484378 
L 282.512379 84.905199 
L 284.908942 94.443522 
L 287.305505 92.327044 
L 289.702067 76.889042 
L 292.09863 117.285024 
L 294.495193 106.59023 
L 296.891756 96.964418 
L 299.288343 121.293192 
L 301.684906 107.487177 
L 304.081469 119.38713 
L 306.478032 106.146759 
L 308.874595 90.044421 
L 311.271158 105.544628 
L 313.667721 118.821721 
L 316.064284 144.97364 
L 318.460847 72.861578 
L 320.85741 113.033299 
L 323.253973 102.775654 
L 325.650536 84.36694 
L 328.047098 102.525826 
L 330.443661 143.773586 
L 332.840224 123.534035 
L 335.236787 174.543088 
L 337.63335 124.021471 
L 340.029913 145.393165 
L 342.426476 99.373281 
L 344.823039 145.191544 
L 347.219602 114.983843 
L 349.616189 124.293726 
L 352.012752 148.44153 
L 354.409315 158.006038 
L 356.805878 173.555579 
L 359.202441 154.098263 
L 361.599004 77.342055 
L 363.995566 185.436332 
L 368.788692 96.827256 
L 371.185255 128.624634 
L 373.581818 165.914526 
L 373.581818 165.914526 
" style="fill:none;stroke:#008000;stroke-linecap:square;stroke-width:0.3;"/>
   </g>
   <g id="line2d_17">
    <path clip-path="url(#p7a010f92c5)" d="M 69.218182 168.147087 
L 71.614745 202.873526 
L 74.011308 180.018813 
L 76.407871 143.615723 
L 78.804434 133.938916 
L 81.200996 104.474153 
L 83.597571 141.818862 
L 85.994134 210.160369 
L 88.390697 127.474072 
L 90.78726 121.339912 
L 93.183823 144.998378 
L 95.580386 185.904132 
L 97.976949 180.974318 
L 100.373512 177.118812 
L 102.770075 108.505864 
L 105.16665 148.332514 
L 107.563213 128.338981 
L 109.959776 116.986068 
L 112.356339 124.536373 
L 114.752902 117.943391 
L 117.149464 109.886948 
L 119.546027 136.449937 
L 121.94259 98.349902 
L 124.339153 92.586686 
L 126.735722 148.487706 
L 129.132285 124.56019 
L 131.528848 121.93305 
L 133.925411 111.25014 
L 136.321974 109.233328 
L 138.718537 89.081571 
L 141.115106 112.938473 
L 143.511669 116.704011 
L 145.908232 98.652993 
L 148.304795 101.657842 
L 150.701357 112.438591 
L 153.097926 90.451305 
L 155.494489 87.54787 
L 157.891052 86.180471 
L 160.287615 64.318209 
L 162.684178 84.237246 
L 165.080747 91.759062 
L 167.47731 87.990567 
L 169.873873 81.01943 
L 172.270436 60.402595 
L 174.666999 76.067278 
L 177.063562 81.603005 
L 179.460125 72.448203 
L 181.856688 62.769255 
L 184.253263 66.580507 
L 186.649826 58.686724 
L 189.046388 57.480914 
L 191.442951 58.471405 
L 193.839514 60.190627 
L 196.236077 52.521739 
L 198.63264 53.616413 
L 201.029203 49.384873 
L 203.425766 51.09191 
L 205.822329 50.344247 
L 208.218892 48.60753 
L 210.615467 49.822445 
L 213.01203 49.353823 
L 215.408593 51.706123 
L 217.805156 51.529274 
L 220.201719 50.082067 
L 222.598281 48.290864 
L 224.994844 45.018696 
L 227.391407 48.435427 
L 229.78797 50.186558 
L 232.184533 49.730723 
L 234.581108 51.098691 
L 236.977671 46.830377 
L 239.374234 48.80684 
L 241.770797 54.649629 
L 244.16736 52.672499 
L 246.563923 55.553798 
L 248.960486 56.421487 
L 251.357049 55.571797 
L 253.753612 58.6798 
L 256.150174 63.652096 
L 258.546737 72.684199 
L 260.943312 69.126658 
L 263.339875 70.741147 
L 265.736438 82.688917 
L 268.133001 71.063784 
L 270.529564 93.81497 
L 272.926127 77.836961 
L 275.32269 89.917717 
L 277.719253 83.656593 
L 280.115816 82.143025 
L 282.512379 83.300741 
L 284.908942 67.919018 
L 287.305505 73.535943 
L 289.702067 106.233305 
L 292.09863 90.708113 
L 294.495193 88.194045 
L 296.891756 120.150479 
L 299.288343 120.266374 
L 301.684906 55.536841 
L 304.081469 91.283891 
L 306.478032 110.483598 
L 308.874595 115.94685 
L 311.271158 109.169035 
L 313.667721 144.353993 
L 316.064284 91.063274 
L 318.460847 128.46061 
L 320.85741 120.22697 
L 323.253973 160.273218 
L 325.650536 144.682528 
L 328.047098 130.423767 
L 330.443661 164.92263 
L 332.840224 112.508523 
L 335.236787 141.839296 
L 337.63335 176.186613 
L 340.029913 170.109274 
L 342.426476 186.997122 
L 344.823039 119.759227 
L 347.219602 123.004018 
L 349.616189 169.108243 
L 352.012752 130.726914 
L 354.409315 174.281774 
L 356.805878 202.591419 
L 359.202441 132.844877 
L 361.599004 112.722348 
L 363.995566 191.405744 
L 366.392129 143.397606 
L 368.788692 137.545054 
L 371.185255 189.66209 
L 373.581818 159.924007 
L 373.581818 159.924007 
" style="fill:none;stroke:#008000;stroke-linecap:square;stroke-width:0.3;"/>
   </g>
   <g id="line2d_18">
    <path clip-path="url(#p7a010f92c5)" d="M 69.218182 121.310787 
L 71.614745 159.894719 
L 74.011308 159.710754 
L 76.407871 192.814248 
L 78.804434 168.589487 
L 81.200996 120.658081 
L 83.597571 159.363339 
L 85.994134 127.647022 
L 88.390697 128.104464 
L 90.78726 135.048728 
L 93.183823 168.834945 
L 95.580386 187.54796 
L 97.976949 136.607924 
L 100.373512 137.243074 
L 102.770075 115.316879 
L 105.16665 135.016876 
L 107.563213 167.114042 
L 112.356339 117.688563 
L 114.752902 102.588335 
L 117.149464 157.389544 
L 119.546027 133.164996 
L 121.94259 119.22608 
L 124.339153 145.158025 
L 126.735722 95.147165 
L 129.132285 114.590044 
L 131.528848 70.943275 
L 133.925411 106.32426 
L 136.321974 101.644101 
L 138.718537 83.588953 
L 141.115106 101.594082 
L 143.511669 90.689317 
L 145.908232 88.28339 
L 148.304795 109.035786 
L 150.701357 106.592637 
L 153.097926 104.495766 
L 155.494489 83.698701 
L 157.891052 87.003369 
L 160.287615 99.108483 
L 162.684178 92.621438 
L 165.080747 106.938044 
L 167.47731 80.764454 
L 169.873873 87.414815 
L 172.270436 74.200368 
L 174.666999 69.144776 
L 177.063562 72.731956 
L 179.460125 73.189851 
L 181.856688 65.716317 
L 184.253263 64.253926 
L 186.649826 61.746744 
L 189.046388 58.233163 
L 191.442951 59.32962 
L 193.839514 54.884199 
L 196.236077 55.241508 
L 198.63264 52.884626 
L 201.029203 52.225365 
L 203.425766 49.769794 
L 205.822329 48.800808 
L 208.218892 50.316179 
L 210.615467 49.196053 
L 213.01203 48.700146 
L 215.408593 47.891906 
L 217.805156 49.748375 
L 220.201719 49.250538 
L 222.598281 45.464316 
L 224.994844 48.955311 
L 227.391407 48.82044 
L 229.78797 45.202318 
L 232.184533 48.022722 
L 234.581108 49.560705 
L 236.977671 51.795445 
L 239.374234 48.297117 
L 241.770797 53.598709 
L 244.16736 55.236625 
L 246.563923 55.406365 
L 248.960486 58.408086 
L 251.357049 58.268174 
L 253.753612 61.329353 
L 256.150174 58.55036 
L 258.546737 71.911467 
L 260.943312 64.419024 
L 263.339875 62.793917 
L 265.736438 89.081122 
L 268.133001 69.204696 
L 270.529564 90.178742 
L 272.926127 66.594547 
L 275.32269 84.451702 
L 277.719253 86.083902 
L 280.115816 75.748284 
L 282.512379 72.859645 
L 284.908942 77.930771 
L 287.305505 75.557618 
L 289.702067 91.701365 
L 292.09863 82.902428 
L 294.495193 95.326127 
L 296.891756 83.074725 
L 299.288343 114.643856 
L 301.684906 107.400244 
L 304.081469 75.928592 
L 306.478032 122.512261 
L 308.874595 77.82258 
L 311.271158 103.257581 
L 313.667721 113.520529 
L 316.064284 134.816298 
L 318.460847 138.229253 
L 320.85741 149.790504 
L 323.253973 127.3865 
L 325.650536 128.791923 
L 328.047098 158.975268 
L 330.443661 129.298588 
L 332.840224 143.024325 
L 335.236787 145.698988 
L 337.63335 118.59052 
L 340.029913 132.628471 
L 342.426476 148.090569 
L 344.823039 140.786204 
L 347.219602 122.895883 
L 349.616189 124.660139 
L 352.012752 104.831809 
L 354.409315 122.280477 
L 356.805878 114.986968 
L 359.202441 95.481272 
L 361.599004 171.281229 
L 363.995566 213.468 
L 366.392129 145.19289 
L 368.788692 207.030149 
L 371.185255 134.038933 
L 373.581818 148.917297 
L 373.581818 148.917297 
" style="fill:none;stroke:#008000;stroke-linecap:square;stroke-width:0.3;"/>
   </g>
   <g id="line2d_19">
    <path clip-path="url(#p7a010f92c5)" d="M 69.218182 218.723683 
L 71.614745 177.602153 
L 74.011308 128.917749 
L 76.407871 130.309337 
L 78.804434 110.011467 
L 81.200996 171.837106 
L 83.597571 178.73333 
L 85.994134 173.246945 
L 88.390697 97.352315 
L 90.78726 125.013368 
L 93.183823 112.412675 
L 95.580386 128.085489 
L 97.976949 145.906658 
L 100.373512 96.531837 
L 102.770075 140.524295 
L 105.16665 165.669102 
L 107.563213 144.808876 
L 109.959776 132.034217 
L 112.356339 108.811267 
L 114.752902 97.738431 
L 117.149464 147.044787 
L 119.546027 147.565001 
L 121.94259 129.263151 
L 124.339153 140.243956 
L 126.735722 87.797626 
L 129.132285 105.284588 
L 131.528848 85.698527 
L 133.925411 114.120107 
L 136.321974 130.634074 
L 138.718537 100.93999 
L 141.115106 110.062278 
L 143.511669 109.871384 
L 145.908232 80.071506 
L 148.304795 88.360271 
L 150.701357 114.977178 
L 153.097926 93.131043 
L 155.494489 81.536336 
L 157.891052 99.68297 
L 160.287615 71.486417 
L 162.684178 79.997414 
L 165.080747 73.454822 
L 167.47731 72.868636 
L 169.873873 85.010947 
L 172.270436 71.378668 
L 174.666999 64.923417 
L 177.063562 69.796229 
L 179.460125 70.129145 
L 181.856688 71.349889 
L 184.253263 61.835339 
L 186.649826 68.80648 
L 189.046388 60.574613 
L 191.442951 60.403172 
L 193.839514 53.575112 
L 196.236077 55.028898 
L 198.63264 54.603454 
L 203.425766 48.976135 
L 205.822329 49.231369 
L 208.218892 47.050012 
L 210.615467 50.269487 
L 213.01203 52.698826 
L 215.408593 51.406081 
L 217.805156 48.406594 
L 220.201719 48.159963 
L 222.598281 48.343745 
L 224.994844 48.845526 
L 227.391407 48.224832 
L 229.78797 49.655514 
L 232.184533 46.796783 
L 234.581108 52.113475 
L 236.977671 49.705374 
L 239.374234 50.769601 
L 244.16736 52.404792 
L 246.563923 57.733261 
L 248.960486 60.005456 
L 251.357049 54.584424 
L 253.753612 57.114917 
L 256.150174 64.11873 
L 258.546737 65.972364 
L 260.943312 69.794903 
L 263.339875 75.457631 
L 265.736438 72.491401 
L 268.133001 68.953596 
L 270.529564 73.417062 
L 272.926127 80.477747 
L 275.32269 92.304469 
L 277.719253 82.223893 
L 280.115816 91.233459 
L 282.512379 104.496916 
L 284.908942 86.85879 
L 287.305505 84.97032 
L 289.702067 89.72523 
L 292.09863 75.416441 
L 294.495193 124.332827 
L 296.891756 102.94117 
L 299.288343 95.609059 
L 301.684906 114.729319 
L 304.081469 115.449494 
L 306.478032 91.820901 
L 308.874595 94.091584 
L 311.271158 120.436469 
L 313.667721 102.76781 
L 316.064284 102.001094 
L 318.460847 92.24189 
L 320.85741 111.309423 
L 323.253973 109.636705 
L 325.650536 132.389107 
L 328.047098 106.522111 
L 330.443661 120.625298 
L 332.840224 125.293764 
L 335.236787 125.042252 
L 337.63335 158.023712 
L 340.029913 154.937649 
L 342.426476 125.986541 
L 344.823039 110.57691 
L 347.219602 189.696136 
L 349.616189 151.094407 
L 352.012752 183.197083 
L 354.409315 159.116209 
L 356.805878 112.705151 
L 359.202441 216.156005 
L 361.599004 165.817988 
L 363.995566 193.720716 
L 366.392129 161.329671 
L 368.788692 149.799509 
L 371.185255 66.027858 
L 373.581818 164.590688 
L 373.581818 164.590688 
" style="fill:none;stroke:#008000;stroke-linecap:square;stroke-width:0.3;"/>
   </g>
   <g id="line2d_20">
    <path clip-path="url(#p7a010f92c5)" d="M 69.218182 102.717785 
L 71.614745 102.11465 
L 74.011308 234.868347 
L 76.407871 207.100597 
L 78.804434 148.109555 
L 81.200996 111.790873 
L 83.597571 182.731023 
L 85.994134 175.187255 
L 88.390697 129.142767 
L 90.78726 118.897578 
L 93.183823 146.827175 
L 95.580386 136.688039 
L 97.976949 158.652517 
L 100.373512 160.600637 
L 102.770075 145.255686 
L 105.16665 162.572771 
L 107.563213 101.723145 
L 109.959776 154.539501 
L 112.356339 108.552994 
L 114.752902 119.460944 
L 117.149464 144.907787 
L 119.546027 125.55662 
L 121.94259 124.883755 
L 124.339153 88.214205 
L 126.735722 106.441849 
L 129.132285 101.099003 
L 131.528848 114.73039 
L 133.925411 103.920617 
L 136.321974 120.129854 
L 138.718537 114.82152 
L 141.115106 99.871787 
L 143.511669 92.460756 
L 145.908232 77.816216 
L 148.304795 96.159224 
L 150.701357 74.0719 
L 153.097926 96.923454 
L 155.494489 91.738855 
L 157.891052 94.288175 
L 160.287615 86.402271 
L 162.684178 81.403422 
L 165.080747 76.896257 
L 167.47731 83.136734 
L 169.873873 66.457356 
L 172.270436 83.131805 
L 174.666999 82.109541 
L 177.063562 73.119954 
L 179.460125 66.715958 
L 184.253263 66.151674 
L 186.649826 59.064907 
L 189.046388 61.358791 
L 191.442951 57.154563 
L 193.839514 55.862709 
L 196.236077 56.262754 
L 198.63264 56.152219 
L 201.029203 48.791711 
L 203.425766 49.383613 
L 205.822329 49.124895 
L 208.218892 49.202006 
L 210.615467 50.670513 
L 213.01203 49.632306 
L 215.408593 49.190832 
L 217.805156 50.26749 
L 220.201719 47.968223 
L 222.598281 48.955367 
L 224.994844 44.443636 
L 227.391407 47.940427 
L 229.78797 50.280464 
L 232.184533 47.269744 
L 234.581108 48.379634 
L 236.977671 50.12553 
L 239.374234 53.512839 
L 241.770797 50.108005 
L 244.16736 53.109762 
L 246.563923 54.964515 
L 248.960486 55.825789 
L 251.357049 59.090756 
L 253.753612 63.761981 
L 256.150174 57.442708 
L 258.546737 61.194213 
L 260.943312 77.263542 
L 263.339875 76.359142 
L 265.736438 73.280781 
L 268.133001 76.671479 
L 270.529564 78.469994 
L 272.926127 68.158027 
L 275.32269 70.448296 
L 277.719253 82.436519 
L 280.115816 81.566283 
L 282.512379 83.069812 
L 284.908942 100.163758 
L 287.305505 92.118603 
L 289.702067 94.924195 
L 292.09863 95.941654 
L 294.495193 104.605764 
L 296.891756 109.430449 
L 299.288343 103.572696 
L 301.684906 91.220826 
L 304.081469 95.882321 
L 306.478032 116.658071 
L 308.874595 101.055627 
L 311.271158 120.176547 
L 313.667721 94.925564 
L 316.064284 98.935241 
L 318.460847 98.222488 
L 320.85741 127.639925 
L 323.253973 113.203708 
L 325.650536 130.242715 
L 328.047098 120.40694 
L 330.443661 150.380241 
L 332.840224 141.020597 
L 335.236787 139.412879 
L 337.63335 141.463973 
L 340.029913 132.049563 
L 342.426476 141.022802 
L 344.823039 80.394042 
L 347.219602 129.032354 
L 349.616189 126.109214 
L 352.012752 105.006852 
L 354.409315 127.246468 
L 356.805878 169.820568 
L 359.202441 145.572085 
L 361.599004 202.502691 
L 363.995566 170.925644 
L 366.392129 124.546466 
L 368.788692 96.586132 
L 371.185255 132.328343 
L 373.581818 206.060908 
L 373.581818 206.060908 
" style="fill:none;stroke:#008000;stroke-linecap:square;stroke-width:0.3;"/>
   </g>
   <g id="line2d_21">
    <path clip-path="url(#p7a010f92c5)" d="M 69.218182 207.634143 
L 71.614745 134.218627 
L 74.011308 136.37045 
L 76.407871 136.294722 
L 78.804434 175.979926 
L 81.200996 146.659398 
L 83.597571 154.757376 
L 85.994134 133.625154 
L 88.390697 116.833961 
L 90.78726 150.410556 
L 93.183823 168.126238 
L 95.580386 170.031049 
L 97.976949 104.668705 
L 100.373512 144.25879 
L 102.770075 171.302101 
L 105.16665 130.018213 
L 107.563213 99.186674 
L 109.959776 137.704556 
L 112.356339 145.058076 
L 114.752902 139.262147 
L 117.149464 117.988782 
L 119.546027 128.079968 
L 121.94259 111.586143 
L 124.339153 112.564658 
L 126.735722 112.509657 
L 129.132285 118.748512 
L 131.528848 102.658536 
L 133.925411 102.15884 
L 136.321974 111.444304 
L 138.718537 84.632117 
L 141.115106 98.264373 
L 143.511669 116.088313 
L 145.908232 84.443835 
L 148.304795 113.535885 
L 150.701357 72.558853 
L 153.097926 83.039447 
L 155.494489 102.46385 
L 157.891052 99.528013 
L 160.287615 87.235134 
L 162.684178 84.863427 
L 165.080747 89.253902 
L 167.47731 72.453976 
L 169.873873 83.440507 
L 172.270436 84.994381 
L 174.666999 78.026635 
L 177.063562 69.350978 
L 179.460125 56.809426 
L 181.856688 67.590646 
L 184.253263 69.712993 
L 186.649826 62.269855 
L 189.046388 60.476251 
L 191.442951 59.15499 
L 193.839514 54.195012 
L 196.236077 53.378998 
L 198.63264 49.879626 
L 201.029203 51.410281 
L 203.425766 52.636652 
L 205.822329 49.155759 
L 208.218892 47.921578 
L 210.615467 47.6532 
L 213.01203 51.149415 
L 215.408593 48.715753 
L 217.805156 47.994565 
L 220.201719 47.699946 
L 222.598281 49.373444 
L 224.994844 48.81458 
L 227.391407 48.39512 
L 229.78797 50.161164 
L 232.184533 48.068497 
L 234.581108 52.085713 
L 236.977671 51.155997 
L 239.374234 51.181824 
L 241.770797 50.516384 
L 244.16736 52.050918 
L 246.563923 49.432839 
L 248.960486 57.198791 
L 251.357049 60.501575 
L 253.753612 59.874457 
L 256.150174 65.368444 
L 258.546737 64.133406 
L 260.943312 64.665653 
L 263.339875 64.090648 
L 265.736438 74.447356 
L 268.133001 76.23183 
L 270.529564 78.919284 
L 272.926127 77.043837 
L 275.32269 80.890115 
L 277.719253 78.568204 
L 280.115816 76.700987 
L 282.512379 98.516462 
L 284.908942 87.780109 
L 287.305505 88.086011 
L 289.702067 86.989783 
L 292.09863 98.197336 
L 294.495193 90.268603 
L 296.891756 102.795741 
L 299.288343 107.695789 
L 301.684906 110.288822 
L 304.081469 114.66194 
L 306.478032 113.371805 
L 308.874595 55.825651 
L 311.271158 101.377901 
L 313.667721 130.08764 
L 316.064284 104.507447 
L 318.460847 117.823383 
L 320.85741 123.515025 
L 323.253973 128.055314 
L 325.650536 111.651531 
L 328.047098 129.58235 
L 330.443661 142.4437 
L 332.840224 108.410297 
L 335.236787 113.136323 
L 337.63335 164.439827 
L 340.029913 137.361825 
L 342.426476 117.397182 
L 344.823039 141.333092 
L 347.219602 99.497087 
L 349.616189 165.546553 
L 352.012752 138.274004 
L 354.409315 151.69789 
L 356.805878 156.104543 
L 359.202441 135.994745 
L 361.599004 95.101258 
L 363.995566 159.1888 
L 366.392129 164.733762 
L 368.788692 115.0812 
L 371.185255 191.564662 
L 373.581818 91.600543 
L 373.581818 91.600543 
" style="fill:none;stroke:#008000;stroke-linecap:square;stroke-width:0.3;"/>
   </g>
   <g id="line2d_22">
    <defs>
     <path d="M 0 1 
C 0.265203 1 0.51958 0.894634 0.707107 0.707107 
C 0.894634 0.51958 1 0.265203 1 0 
C 1 -0.265203 0.894634 -0.51958 0.707107 -0.707107 
C 0.51958 -0.894634 0.265203 -1 0 -1 
C -0.265203 -1 -0.51958 -0.894634 -0.707107 -0.707107 
C -0.894634 -0.51958 -1 -0.265203 -1 0 
C -1 0.265203 -0.894634 0.51958 -0.707107 0.707107 
C -0.51958 0.894634 -0.265203 1 0 1 
z
" id="m72204075aa" style="stroke:#0000ff;"/>
    </defs>
    <g clip-path="url(#p7a010f92c5)">
     <use style="fill:#0000ff;stroke:#0000ff;" x="170.672727" xlink:href="#m72204075aa" y="74.345041"/>
     <use style="fill:#0000ff;stroke:#0000ff;" x="173.945454" xlink:href="#m72204075aa" y="76.725795"/>
     <use style="fill:#0000ff;stroke:#0000ff;" x="177.218182" xlink:href="#m72204075aa" y="69.607832"/>
     <use style="fill:#0000ff;stroke:#0000ff;" x="180.490909" xlink:href="#m72204075aa" y="81.389878"/>
     <use style="fill:#0000ff;stroke:#0000ff;" x="183.763636" xlink:href="#m72204075aa" y="65.06465"/>
     <use style="fill:#0000ff;stroke:#0000ff;" x="187.036363" xlink:href="#m72204075aa" y="85.765627"/>
     <use style="fill:#0000ff;stroke:#0000ff;" x="190.30909" xlink:href="#m72204075aa" y="60.90136"/>
     <use style="fill:#0000ff;stroke:#0000ff;" x="193.581817" xlink:href="#m72204075aa" y="89.673773"/>
     <use style="fill:#0000ff;stroke:#0000ff;" x="196.854545" xlink:href="#m72204075aa" y="57.288456"/>
     <use style="fill:#0000ff;stroke:#0000ff;" x="200.127272" xlink:href="#m72204075aa" y="92.954359"/>
     <use style="fill:#0000ff;stroke:#0000ff;" x="203.399999" xlink:href="#m72204075aa" y="54.373822"/>
     <use style="fill:#0000ff;stroke:#0000ff;" x="206.672726" xlink:href="#m72204075aa" y="95.473078"/>
     <use style="fill:#0000ff;stroke:#0000ff;" x="209.945453" xlink:href="#m72204075aa" y="52.276846"/>
     <use style="fill:#0000ff;stroke:#0000ff;" x="213.218181" xlink:href="#m72204075aa" y="97.126819"/>
     <use style="fill:#0000ff;stroke:#0000ff;" x="216.490908" xlink:href="#m72204075aa" y="51.08333"/>
     <use style="fill:#0000ff;stroke:#0000ff;" x="219.763635" xlink:href="#m72204075aa" y="97.847862"/>
     <use style="fill:#0000ff;stroke:#0000ff;" x="223.036362" xlink:href="#m72204075aa" y="50.842151"/>
     <use style="fill:#0000ff;stroke:#0000ff;" x="226.309092" xlink:href="#m72204075aa" y="97.606687"/>
     <use style="fill:#0000ff;stroke:#0000ff;" x="229.581816" xlink:href="#m72204075aa" y="51.563181"/>
     <use style="fill:#0000ff;stroke:#0000ff;" x="232.854547" xlink:href="#m72204075aa" y="96.413171"/>
     <use style="fill:#0000ff;stroke:#0000ff;" x="236.127271" xlink:href="#m72204075aa" y="53.2169"/>
     <use style="fill:#0000ff;stroke:#0000ff;" x="239.400001" xlink:href="#m72204075aa" y="94.316195"/>
     <use style="fill:#0000ff;stroke:#0000ff;" x="242.672725" xlink:href="#m72204075aa" y="55.735604"/>
     <use style="fill:#0000ff;stroke:#0000ff;" x="245.945455" xlink:href="#m72204075aa" y="91.401561"/>
     <use style="fill:#0000ff;stroke:#0000ff;" x="249.218179" xlink:href="#m72204075aa" y="59.016175"/>
     <use style="fill:#0000ff;stroke:#0000ff;" x="252.49091" xlink:href="#m72204075aa" y="87.788657"/>
     <use style="fill:#0000ff;stroke:#0000ff;" x="255.763634" xlink:href="#m72204075aa" y="62.924312"/>
     <use style="fill:#0000ff;stroke:#0000ff;" x="259.036364" xlink:href="#m72204075aa" y="83.625367"/>
     <use style="fill:#0000ff;stroke:#0000ff;" x="262.309088" xlink:href="#m72204075aa" y="67.300054"/>
     <use style="fill:#0000ff;stroke:#0000ff;" x="265.581818" xlink:href="#m72204075aa" y="79.082185"/>
     <use style="fill:#0000ff;stroke:#0000ff;" x="268.854543" xlink:href="#m72204075aa" y="71.964132"/>
     <use style="fill:#0000ff;stroke:#0000ff;" x="272.127273" xlink:href="#m72204075aa" y="74.344976"/>
    </g>
   </g>
   <g id="patch_3">
    <path d="M 54 252 
L 54 34.56 
" style="fill:none;stroke:#000000;stroke-linecap:square;stroke-linejoin:miter;stroke-width:0.8;"/>
   </g>
   <g id="patch_4">
    <path d="M 388.8 252 
L 388.8 34.56 
" style="fill:none;stroke:#000000;stroke-linecap:square;stroke-linejoin:miter;stroke-width:0.8;"/>
   </g>
   <g id="patch_5">
    <path d="M 54 252 
L 388.8 252 
" style="fill:none;stroke:#000000;stroke-linecap:square;stroke-linejoin:miter;stroke-width:0.8;"/>
   </g>
   <g id="patch_6">
    <path d="M 54 34.56 
L 388.8 34.56 
" style="fill:none;stroke:#000000;stroke-linecap:square;stroke-linejoin:miter;stroke-width:0.8;"/>
   </g>
   <g id="text_12">
    <!-- Regression with Magneto-loss -->
    <defs>
     <path d="M 44.390625 34.1875 
Q 47.5625 33.109375 50.5625 29.59375 
Q 53.5625 26.078125 56.59375 19.921875 
L 66.609375 0 
L 56 0 
L 46.6875 18.703125 
Q 43.0625 26.03125 39.671875 28.421875 
Q 36.28125 30.8125 30.421875 30.8125 
L 19.671875 30.8125 
L 19.671875 0 
L 9.8125 0 
L 9.8125 72.90625 
L 32.078125 72.90625 
Q 44.578125 72.90625 50.734375 67.671875 
Q 56.890625 62.453125 56.890625 51.90625 
Q 56.890625 45.015625 53.6875 40.46875 
Q 50.484375 35.9375 44.390625 34.1875 
M 19.671875 64.796875 
L 19.671875 38.921875 
L 32.078125 38.921875 
Q 39.203125 38.921875 42.84375 42.21875 
Q 46.484375 45.515625 46.484375 51.90625 
Q 46.484375 58.296875 42.84375 61.546875 
Q 39.203125 64.796875 32.078125 64.796875 
z
" id="DejaVuSans-52"/>
     <path d="M 56.203125 29.59375 
L 56.203125 25.203125 
L 14.890625 25.203125 
Q 15.484375 15.921875 20.484375 11.0625 
Q 25.484375 6.203125 34.421875 6.203125 
Q 39.59375 6.203125 44.453125 7.46875 
Q 49.3125 8.734375 54.109375 11.28125 
L 54.109375 2.78125 
Q 49.265625 0.734375 44.1875 -0.34375 
Q 39.109375 -1.421875 33.890625 -1.421875 
Q 20.796875 -1.421875 13.15625 6.1875 
Q 5.515625 13.8125 5.515625 26.8125 
Q 5.515625 40.234375 12.765625 48.109375 
Q 20.015625 56 32.328125 56 
Q 43.359375 56 49.78125 48.890625 
Q 56.203125 41.796875 56.203125 29.59375 
M 47.21875 32.234375 
Q 47.125 39.59375 43.09375 43.984375 
Q 39.0625 48.390625 32.421875 48.390625 
Q 24.90625 48.390625 20.390625 44.140625 
Q 15.875 39.890625 15.1875 32.171875 
z
" id="DejaVuSans-65"/>
     <path d="M 45.40625 27.984375 
Q 45.40625 37.75 41.375 43.109375 
Q 37.359375 48.484375 30.078125 48.484375 
Q 22.859375 48.484375 18.828125 43.109375 
Q 14.796875 37.75 14.796875 27.984375 
Q 14.796875 18.265625 18.828125 12.890625 
Q 22.859375 7.515625 30.078125 7.515625 
Q 37.359375 7.515625 41.375 12.890625 
Q 45.40625 18.265625 45.40625 27.984375 
M 54.390625 6.78125 
Q 54.390625 -7.171875 48.1875 -13.984375 
Q 42 -20.796875 29.203125 -20.796875 
Q 24.46875 -20.796875 20.265625 -20.09375 
Q 16.0625 -19.390625 12.109375 -17.921875 
L 12.109375 -9.1875 
Q 16.0625 -11.328125 19.921875 -12.34375 
Q 23.78125 -13.375 27.78125 -13.375 
Q 36.625 -13.375 41.015625 -8.765625 
Q 45.40625 -4.15625 45.40625 5.171875 
L 45.40625 9.625 
Q 42.625 4.78125 38.28125 2.390625 
Q 33.9375 0 27.875 0 
Q 17.828125 0 11.671875 7.65625 
Q 5.515625 15.328125 5.515625 27.984375 
Q 5.515625 40.671875 11.671875 48.328125 
Q 17.828125 56 27.875 56 
Q 33.9375 56 38.28125 53.609375 
Q 42.625 51.21875 45.40625 46.390625 
L 45.40625 54.6875 
L 54.390625 54.6875 
z
" id="DejaVuSans-67"/>
     <path d="M 41.109375 46.296875 
Q 39.59375 47.171875 37.8125 47.578125 
Q 36.03125 48 33.890625 48 
Q 26.265625 48 22.1875 43.046875 
Q 18.109375 38.09375 18.109375 28.8125 
L 18.109375 0 
L 9.078125 0 
L 9.078125 54.6875 
L 18.109375 54.6875 
L 18.109375 46.1875 
Q 20.953125 51.171875 25.484375 53.578125 
Q 30.03125 56 36.53125 56 
Q 37.453125 56 38.578125 55.875 
Q 39.703125 55.765625 41.0625 55.515625 
z
" id="DejaVuSans-72"/>
     <path d="M 44.28125 53.078125 
L 44.28125 44.578125 
Q 40.484375 46.53125 36.375 47.5 
Q 32.28125 48.484375 27.875 48.484375 
Q 21.1875 48.484375 17.84375 46.4375 
Q 14.5 44.390625 14.5 40.28125 
Q 14.5 37.15625 16.890625 35.375 
Q 19.28125 33.59375 26.515625 31.984375 
L 29.59375 31.296875 
Q 39.15625 29.25 43.1875 25.515625 
Q 47.21875 21.78125 47.21875 15.09375 
Q 47.21875 7.46875 41.1875 3.015625 
Q 35.15625 -1.421875 24.609375 -1.421875 
Q 20.21875 -1.421875 15.453125 -0.5625 
Q 10.6875 0.296875 5.421875 2 
L 5.421875 11.28125 
Q 10.40625 8.6875 15.234375 7.390625 
Q 20.0625 6.109375 24.8125 6.109375 
Q 31.15625 6.109375 34.5625 8.28125 
Q 37.984375 10.453125 37.984375 14.40625 
Q 37.984375 18.0625 35.515625 20.015625 
Q 33.0625 21.96875 24.703125 23.78125 
L 21.578125 24.515625 
Q 13.234375 26.265625 9.515625 29.90625 
Q 5.8125 33.546875 5.8125 39.890625 
Q 5.8125 47.609375 11.28125 51.796875 
Q 16.75 56 26.8125 56 
Q 31.78125 56 36.171875 55.265625 
Q 40.578125 54.546875 44.28125 53.078125 
" id="DejaVuSans-73"/>
     <path d="M 9.421875 54.6875 
L 18.40625 54.6875 
L 18.40625 0 
L 9.421875 0 
z
M 9.421875 75.984375 
L 18.40625 75.984375 
L 18.40625 64.59375 
L 9.421875 64.59375 
z
" id="DejaVuSans-69"/>
     <path d="M 30.609375 48.390625 
Q 23.390625 48.390625 19.1875 42.75 
Q 14.984375 37.109375 14.984375 27.296875 
Q 14.984375 17.484375 19.15625 11.84375 
Q 23.34375 6.203125 30.609375 6.203125 
Q 37.796875 6.203125 41.984375 11.859375 
Q 46.1875 17.53125 46.1875 27.296875 
Q 46.1875 37.015625 41.984375 42.703125 
Q 37.796875 48.390625 30.609375 48.390625 
M 30.609375 56 
Q 42.328125 56 49.015625 48.375 
Q 55.71875 40.765625 55.71875 27.296875 
Q 55.71875 13.875 49.015625 6.21875 
Q 42.328125 -1.421875 30.609375 -1.421875 
Q 18.84375 -1.421875 12.171875 6.21875 
Q 5.515625 13.875 5.515625 27.296875 
Q 5.515625 40.765625 12.171875 48.375 
Q 18.84375 56 30.609375 56 
" id="DejaVuSans-6f"/>
     <path d="M 54.890625 33.015625 
L 54.890625 0 
L 45.90625 0 
L 45.90625 32.71875 
Q 45.90625 40.484375 42.875 44.328125 
Q 39.84375 48.1875 33.796875 48.1875 
Q 26.515625 48.1875 22.3125 43.546875 
Q 18.109375 38.921875 18.109375 30.90625 
L 18.109375 0 
L 9.078125 0 
L 9.078125 54.6875 
L 18.109375 54.6875 
L 18.109375 46.1875 
Q 21.34375 51.125 25.703125 53.5625 
Q 30.078125 56 35.796875 56 
Q 45.21875 56 50.046875 50.171875 
Q 54.890625 44.34375 54.890625 33.015625 
" id="DejaVuSans-6e"/>
     <path id="DejaVuSans-20"/>
     <path d="M 4.203125 54.6875 
L 13.1875 54.6875 
L 24.421875 12.015625 
L 35.59375 54.6875 
L 46.1875 54.6875 
L 57.421875 12.015625 
L 68.609375 54.6875 
L 77.59375 54.6875 
L 63.28125 0 
L 52.6875 0 
L 40.921875 44.828125 
L 29.109375 0 
L 18.5 0 
z
" id="DejaVuSans-77"/>
     <path d="M 18.3125 70.21875 
L 18.3125 54.6875 
L 36.8125 54.6875 
L 36.8125 47.703125 
L 18.3125 47.703125 
L 18.3125 18.015625 
Q 18.3125 11.328125 20.140625 9.421875 
Q 21.96875 7.515625 27.59375 7.515625 
L 36.8125 7.515625 
L 36.8125 0 
L 27.59375 0 
Q 17.1875 0 13.234375 3.875 
Q 9.28125 7.765625 9.28125 18.015625 
L 9.28125 47.703125 
L 2.6875 47.703125 
L 2.6875 54.6875 
L 9.28125 54.6875 
L 9.28125 70.21875 
z
" id="DejaVuSans-74"/>
     <path d="M 54.890625 33.015625 
L 54.890625 0 
L 45.90625 0 
L 45.90625 32.71875 
Q 45.90625 40.484375 42.875 44.328125 
Q 39.84375 48.1875 33.796875 48.1875 
Q 26.515625 48.1875 22.3125 43.546875 
Q 18.109375 38.921875 18.109375 30.90625 
L 18.109375 0 
L 9.078125 0 
L 9.078125 75.984375 
L 18.109375 75.984375 
L 18.109375 46.1875 
Q 21.34375 51.125 25.703125 53.5625 
Q 30.078125 56 35.796875 56 
Q 45.21875 56 50.046875 50.171875 
Q 54.890625 44.34375 54.890625 33.015625 
" id="DejaVuSans-68"/>
     <path d="M 9.8125 72.90625 
L 24.515625 72.90625 
L 43.109375 23.296875 
L 61.8125 72.90625 
L 76.515625 72.90625 
L 76.515625 0 
L 66.890625 0 
L 66.890625 64.015625 
L 48.09375 14.015625 
L 38.1875 14.015625 
L 19.390625 64.015625 
L 19.390625 0 
L 9.8125 0 
z
" id="DejaVuSans-4d"/>
     <path d="M 34.28125 27.484375 
Q 23.390625 27.484375 19.1875 25 
Q 14.984375 22.515625 14.984375 16.5 
Q 14.984375 11.71875 18.140625 8.90625 
Q 21.296875 6.109375 26.703125 6.109375 
Q 34.1875 6.109375 38.703125 11.40625 
Q 43.21875 16.703125 43.21875 25.484375 
L 43.21875 27.484375 
z
M 52.203125 31.203125 
L 52.203125 0 
L 43.21875 0 
L 43.21875 8.296875 
Q 40.140625 3.328125 35.546875 0.953125 
Q 30.953125 -1.421875 24.3125 -1.421875 
Q 15.921875 -1.421875 10.953125 3.296875 
Q 6 8.015625 6 15.921875 
Q 6 25.140625 12.171875 29.828125 
Q 18.359375 34.515625 30.609375 34.515625 
L 43.21875 34.515625 
L 43.21875 35.40625 
Q 43.21875 41.609375 39.140625 45 
Q 35.0625 48.390625 27.6875 48.390625 
Q 23 48.390625 18.546875 47.265625 
Q 14.109375 46.140625 10.015625 43.890625 
L 10.015625 52.203125 
Q 14.9375 54.109375 19.578125 55.046875 
Q 24.21875 56 28.609375 56 
Q 40.484375 56 46.34375 49.84375 
Q 52.203125 43.703125 52.203125 31.203125 
" id="DejaVuSans-61"/>
     <path d="M 4.890625 31.390625 
L 31.203125 31.390625 
L 31.203125 23.390625 
L 4.890625 23.390625 
z
" id="DejaVuSans-2d"/>
     <path d="M 9.421875 75.984375 
L 18.40625 75.984375 
L 18.40625 0 
L 9.421875 0 
z
" id="DejaVuSans-6c"/>
    </defs>
    <g transform="translate(131.7075 28.56)scale(0.12 -0.12)">
     <use xlink:href="#DejaVuSans-52"/>
     <use x="69.419922" xlink:href="#DejaVuSans-65"/>
     <use x="130.943359" xlink:href="#DejaVuSans-67"/>
     <use x="194.419922" xlink:href="#DejaVuSans-72"/>
     <use x="235.501953" xlink:href="#DejaVuSans-65"/>
     <use x="297.025391" xlink:href="#DejaVuSans-73"/>
     <use x="349.125" xlink:href="#DejaVuSans-73"/>
     <use x="401.224609" xlink:href="#DejaVuSans-69"/>
     <use x="429.007812" xlink:href="#DejaVuSans-6f"/>
     <use x="490.189453" xlink:href="#DejaVuSans-6e"/>
     <use x="553.568359" xlink:href="#DejaVuSans-20"/>
     <use x="585.355469" xlink:href="#DejaVuSans-77"/>
     <use x="667.142578" xlink:href="#DejaVuSans-69"/>
     <use x="694.925781" xlink:href="#DejaVuSans-74"/>
     <use x="734.134766" xlink:href="#DejaVuSans-68"/>
     <use x="797.513672" xlink:href="#DejaVuSans-20"/>
     <use x="829.300781" xlink:href="#DejaVuSans-4d"/>
     <use x="915.580078" xlink:href="#DejaVuSans-61"/>
     <use x="976.859375" xlink:href="#DejaVuSans-67"/>
     <use x="1040.335938" xlink:href="#DejaVuSans-6e"/>
     <use x="1103.714844" xlink:href="#DejaVuSans-65"/>
     <use x="1165.238281" xlink:href="#DejaVuSans-74"/>
     <use x="1204.447266" xlink:href="#DejaVuSans-6f"/>
     <use x="1265.644531" xlink:href="#DejaVuSans-2d"/>
     <use x="1301.728516" xlink:href="#DejaVuSans-6c"/>
     <use x="1329.511719" xlink:href="#DejaVuSans-6f"/>
     <use x="1390.693359" xlink:href="#DejaVuSans-73"/>
     <use x="1442.792969" xlink:href="#DejaVuSans-73"/>
    </g>
   </g>
   <g id="legend_1">
    <g id="patch_7">
     <path d="M 177.760938 247 
L 265.039062 247 
Q 267.039062 247 267.039062 245 
L 267.039062 216.64375 
Q 267.039062 214.64375 265.039062 214.64375 
L 177.760938 214.64375 
Q 175.760938 214.64375 175.760938 216.64375 
L 175.760938 245 
Q 175.760938 247 177.760938 247 
z
" style="fill:#ffffff;opacity:0.8;stroke:#cccccc;stroke-linejoin:miter;"/>
    </g>
    <g id="line2d_23">
     <path d="M 179.760938 222.742188 
L 199.760938 222.742188 
" style="fill:none;stroke:#008000;stroke-linecap:square;stroke-width:0.3;"/>
    </g>
    <g id="line2d_24"/>
    <g id="text_13">
     <!-- Predictions -->
     <defs>
      <path d="M 19.671875 64.796875 
L 19.671875 37.40625 
L 32.078125 37.40625 
Q 38.96875 37.40625 42.71875 40.96875 
Q 46.484375 44.53125 46.484375 51.125 
Q 46.484375 57.671875 42.71875 61.234375 
Q 38.96875 64.796875 32.078125 64.796875 
z
M 9.8125 72.90625 
L 32.078125 72.90625 
Q 44.34375 72.90625 50.609375 67.359375 
Q 56.890625 61.8125 56.890625 51.125 
Q 56.890625 40.328125 50.609375 34.8125 
Q 44.34375 29.296875 32.078125 29.296875 
L 19.671875 29.296875 
L 19.671875 0 
L 9.8125 0 
z
" id="DejaVuSans-50"/>
      <path d="M 45.40625 46.390625 
L 45.40625 75.984375 
L 54.390625 75.984375 
L 54.390625 0 
L 45.40625 0 
L 45.40625 8.203125 
Q 42.578125 3.328125 38.25 0.953125 
Q 33.9375 -1.421875 27.875 -1.421875 
Q 17.96875 -1.421875 11.734375 6.484375 
Q 5.515625 14.40625 5.515625 27.296875 
Q 5.515625 40.1875 11.734375 48.09375 
Q 17.96875 56 27.875 56 
Q 33.9375 56 38.25 53.625 
Q 42.578125 51.265625 45.40625 46.390625 
M 14.796875 27.296875 
Q 14.796875 17.390625 18.875 11.75 
Q 22.953125 6.109375 30.078125 6.109375 
Q 37.203125 6.109375 41.296875 11.75 
Q 45.40625 17.390625 45.40625 27.296875 
Q 45.40625 37.203125 41.296875 42.84375 
Q 37.203125 48.484375 30.078125 48.484375 
Q 22.953125 48.484375 18.875 42.84375 
Q 14.796875 37.203125 14.796875 27.296875 
" id="DejaVuSans-64"/>
      <path d="M 48.78125 52.59375 
L 48.78125 44.1875 
Q 44.96875 46.296875 41.140625 47.34375 
Q 37.3125 48.390625 33.40625 48.390625 
Q 24.65625 48.390625 19.8125 42.84375 
Q 14.984375 37.3125 14.984375 27.296875 
Q 14.984375 17.28125 19.8125 11.734375 
Q 24.65625 6.203125 33.40625 6.203125 
Q 37.3125 6.203125 41.140625 7.25 
Q 44.96875 8.296875 48.78125 10.40625 
L 48.78125 2.09375 
Q 45.015625 0.34375 40.984375 -0.53125 
Q 36.96875 -1.421875 32.421875 -1.421875 
Q 20.0625 -1.421875 12.78125 6.34375 
Q 5.515625 14.109375 5.515625 27.296875 
Q 5.515625 40.671875 12.859375 48.328125 
Q 20.21875 56 33.015625 56 
Q 37.15625 56 41.109375 55.140625 
Q 45.0625 54.296875 48.78125 52.59375 
" id="DejaVuSans-63"/>
     </defs>
     <g transform="translate(207.760938 226.242188)scale(0.1 -0.1)">
      <use xlink:href="#DejaVuSans-50"/>
      <use x="60.287109" xlink:href="#DejaVuSans-72"/>
      <use x="101.369141" xlink:href="#DejaVuSans-65"/>
      <use x="162.892578" xlink:href="#DejaVuSans-64"/>
      <use x="226.369141" xlink:href="#DejaVuSans-69"/>
      <use x="254.152344" xlink:href="#DejaVuSans-63"/>
      <use x="309.132812" xlink:href="#DejaVuSans-74"/>
      <use x="348.341797" xlink:href="#DejaVuSans-69"/>
      <use x="376.125" xlink:href="#DejaVuSans-6f"/>
      <use x="437.306641" xlink:href="#DejaVuSans-6e"/>
      <use x="500.685547" xlink:href="#DejaVuSans-73"/>
     </g>
    </g>
    <g id="line2d_25"/>
    <g id="line2d_26">
     <g>
      <use style="fill:#0000ff;stroke:#0000ff;" x="189.760938" xlink:href="#m72204075aa" y="237.420312"/>
     </g>
    </g>
    <g id="text_14">
     <!-- Targets -->
     <defs>
      <path d="M -0.296875 72.90625 
L 61.375 72.90625 
L 61.375 64.59375 
L 35.5 64.59375 
L 35.5 0 
L 25.59375 0 
L 25.59375 64.59375 
L -0.296875 64.59375 
z
" id="DejaVuSans-54"/>
     </defs>
     <g transform="translate(207.760938 240.920312)scale(0.1 -0.1)">
      <use xlink:href="#DejaVuSans-54"/>
      <use x="60.833984" xlink:href="#DejaVuSans-61"/>
      <use x="122.113281" xlink:href="#DejaVuSans-72"/>
      <use x="163.210938" xlink:href="#DejaVuSans-67"/>
      <use x="226.6875" xlink:href="#DejaVuSans-65"/>
      <use x="288.210938" xlink:href="#DejaVuSans-74"/>
      <use x="327.419922" xlink:href="#DejaVuSans-73"/>
     </g>
    </g>
   </g>
  </g>
 </g>
 <defs>
  <clipPath id="p7a010f92c5">
   <rect height="217.44" width="334.8" x="54" y="34.56"/>
  </clipPath>
 </defs>
</svg>
