<?xml version="1.0" encoding="utf-8" standalone="no"?>
<!DOCTYPE svg PUBLIC "-//W3C//DTD SVG 1.1//EN"
  "http://www.w3.org/Graphics/SVG/1.1/DTD/svg11.dtd">
<!-- Created with matplotlib (http://matplotlib.org/) -->
<svg height="288pt" version="1.1" viewBox="0 0 432 288" width="432pt" xmlns="http://www.w3.org/2000/svg" xmlns:xlink="http://www.w3.org/1999/xlink">
 <defs>
  <style type="text/css">
*{stroke-linecap:butt;stroke-linejoin:round;}
  </style>
 </defs>
 <g id="figure_1">
  <g id="patch_1">
   <path d="M 0 288 
L 432 288 
L 432 0 
L 0 0 
z
" style="fill:#ffffff;"/>
  </g>
  <g id="axes_1">
   <g id="patch_2">
    <path d="M 54 252 
L 388.8 252 
L 388.8 34.56 
L 54 34.56 
z
" style="fill:#ffffff;"/>
   </g>
   <g id="matplotlib.axis_1">
    <g id="xtick_1">
     <g id="line2d_1">
      <defs>
       <path d="M 0 0 
L 0 3.5 
" id="mb02360b820" style="stroke:#000000;stroke-width:0.8;"/>
      </defs>
      <g>
       <use style="stroke:#000000;stroke-width:0.8;" x="69.218182" xlink:href="#mb02360b820" y="252"/>
      </g>
     </g>
     <g id="text_1">
      <!-- −3 -->
      <defs>
       <path d="M 10.59375 35.5 
L 73.1875 35.5 
L 73.1875 27.203125 
L 10.59375 27.203125 
z
" id="DejaVuSans-2212"/>
       <path d="M 40.578125 39.3125 
Q 47.65625 37.796875 51.625 33 
Q 55.609375 28.21875 55.609375 21.1875 
Q 55.609375 10.40625 48.1875 4.484375 
Q 40.765625 -1.421875 27.09375 -1.421875 
Q 22.515625 -1.421875 17.65625 -0.515625 
Q 12.796875 0.390625 7.625 2.203125 
L 7.625 11.71875 
Q 11.71875 9.328125 16.59375 8.109375 
Q 21.484375 6.890625 26.8125 6.890625 
Q 36.078125 6.890625 40.9375 10.546875 
Q 45.796875 14.203125 45.796875 21.1875 
Q 45.796875 27.640625 41.28125 31.265625 
Q 36.765625 34.90625 28.71875 34.90625 
L 20.21875 34.90625 
L 20.21875 43.015625 
L 29.109375 43.015625 
Q 36.375 43.015625 40.234375 45.921875 
Q 44.09375 48.828125 44.09375 54.296875 
Q 44.09375 59.90625 40.109375 62.90625 
Q 36.140625 65.921875 28.71875 65.921875 
Q 24.65625 65.921875 20.015625 65.03125 
Q 15.375 64.15625 9.8125 62.3125 
L 9.8125 71.09375 
Q 15.4375 72.65625 20.34375 73.4375 
Q 25.25 74.21875 29.59375 74.21875 
Q 40.828125 74.21875 47.359375 69.109375 
Q 53.90625 64.015625 53.90625 55.328125 
Q 53.90625 49.265625 50.4375 45.09375 
Q 46.96875 40.921875 40.578125 39.3125 
" id="DejaVuSans-33"/>
      </defs>
      <g transform="translate(61.847088 266.598437)scale(0.1 -0.1)">
       <use xlink:href="#DejaVuSans-2212"/>
       <use x="83.789062" xlink:href="#DejaVuSans-33"/>
      </g>
     </g>
    </g>
    <g id="xtick_2">
     <g id="line2d_2">
      <g>
       <use style="stroke:#000000;stroke-width:0.8;" x="119.945455" xlink:href="#mb02360b820" y="252"/>
      </g>
     </g>
     <g id="text_2">
      <!-- −2 -->
      <defs>
       <path d="M 19.1875 8.296875 
L 53.609375 8.296875 
L 53.609375 0 
L 7.328125 0 
L 7.328125 8.296875 
Q 12.9375 14.109375 22.625 23.890625 
Q 32.328125 33.6875 34.8125 36.53125 
Q 39.546875 41.84375 41.421875 45.53125 
Q 43.3125 49.21875 43.3125 52.78125 
Q 43.3125 58.59375 39.234375 62.25 
Q 35.15625 65.921875 28.609375 65.921875 
Q 23.96875 65.921875 18.8125 64.3125 
Q 13.671875 62.703125 7.8125 59.421875 
L 7.8125 69.390625 
Q 13.765625 71.78125 18.9375 73 
Q 24.125 74.21875 28.421875 74.21875 
Q 39.75 74.21875 46.484375 68.546875 
Q 53.21875 62.890625 53.21875 53.421875 
Q 53.21875 48.921875 51.53125 44.890625 
Q 49.859375 40.875 45.40625 35.40625 
Q 44.1875 33.984375 37.640625 27.21875 
Q 31.109375 20.453125 19.1875 8.296875 
" id="DejaVuSans-32"/>
      </defs>
      <g transform="translate(112.574361 266.598437)scale(0.1 -0.1)">
       <use xlink:href="#DejaVuSans-2212"/>
       <use x="83.789062" xlink:href="#DejaVuSans-32"/>
      </g>
     </g>
    </g>
    <g id="xtick_3">
     <g id="line2d_3">
      <g>
       <use style="stroke:#000000;stroke-width:0.8;" x="170.672727" xlink:href="#mb02360b820" y="252"/>
      </g>
     </g>
     <g id="text_3">
      <!-- −1 -->
      <defs>
       <path d="M 12.40625 8.296875 
L 28.515625 8.296875 
L 28.515625 63.921875 
L 10.984375 60.40625 
L 10.984375 69.390625 
L 28.421875 72.90625 
L 38.28125 72.90625 
L 38.28125 8.296875 
L 54.390625 8.296875 
L 54.390625 0 
L 12.40625 0 
z
" id="DejaVuSans-31"/>
      </defs>
      <g transform="translate(163.301634 266.598437)scale(0.1 -0.1)">
       <use xlink:href="#DejaVuSans-2212"/>
       <use x="83.789062" xlink:href="#DejaVuSans-31"/>
      </g>
     </g>
    </g>
    <g id="xtick_4">
     <g id="line2d_4">
      <g>
       <use style="stroke:#000000;stroke-width:0.8;" x="221.4" xlink:href="#mb02360b820" y="252"/>
      </g>
     </g>
     <g id="text_4">
      <!-- 0 -->
      <defs>
       <path d="M 31.78125 66.40625 
Q 24.171875 66.40625 20.328125 58.90625 
Q 16.5 51.421875 16.5 36.375 
Q 16.5 21.390625 20.328125 13.890625 
Q 24.171875 6.390625 31.78125 6.390625 
Q 39.453125 6.390625 43.28125 13.890625 
Q 47.125 21.390625 47.125 36.375 
Q 47.125 51.421875 43.28125 58.90625 
Q 39.453125 66.40625 31.78125 66.40625 
M 31.78125 74.21875 
Q 44.046875 74.21875 50.515625 64.515625 
Q 56.984375 54.828125 56.984375 36.375 
Q 56.984375 17.96875 50.515625 8.265625 
Q 44.046875 -1.421875 31.78125 -1.421875 
Q 19.53125 -1.421875 13.0625 8.265625 
Q 6.59375 17.96875 6.59375 36.375 
Q 6.59375 54.828125 13.0625 64.515625 
Q 19.53125 74.21875 31.78125 74.21875 
" id="DejaVuSans-30"/>
      </defs>
      <g transform="translate(218.21875 266.598437)scale(0.1 -0.1)">
       <use xlink:href="#DejaVuSans-30"/>
      </g>
     </g>
    </g>
    <g id="xtick_5">
     <g id="line2d_5">
      <g>
       <use style="stroke:#000000;stroke-width:0.8;" x="272.127273" xlink:href="#mb02360b820" y="252"/>
      </g>
     </g>
     <g id="text_5">
      <!-- 1 -->
      <g transform="translate(268.946023 266.598437)scale(0.1 -0.1)">
       <use xlink:href="#DejaVuSans-31"/>
      </g>
     </g>
    </g>
    <g id="xtick_6">
     <g id="line2d_6">
      <g>
       <use style="stroke:#000000;stroke-width:0.8;" x="322.854545" xlink:href="#mb02360b820" y="252"/>
      </g>
     </g>
     <g id="text_6">
      <!-- 2 -->
      <g transform="translate(319.673295 266.598437)scale(0.1 -0.1)">
       <use xlink:href="#DejaVuSans-32"/>
      </g>
     </g>
    </g>
    <g id="xtick_7">
     <g id="line2d_7">
      <g>
       <use style="stroke:#000000;stroke-width:0.8;" x="373.581818" xlink:href="#mb02360b820" y="252"/>
      </g>
     </g>
     <g id="text_7">
      <!-- 3 -->
      <g transform="translate(370.400568 266.598437)scale(0.1 -0.1)">
       <use xlink:href="#DejaVuSans-33"/>
      </g>
     </g>
    </g>
   </g>
   <g id="matplotlib.axis_2">
    <g id="ytick_1">
     <g id="line2d_8">
      <defs>
       <path d="M 0 0 
L -3.5 0 
" id="m0b59189259" style="stroke:#000000;stroke-width:0.8;"/>
      </defs>
      <g>
       <use style="stroke:#000000;stroke-width:0.8;" x="54" xlink:href="#m0b59189259" y="242.243392"/>
      </g>
     </g>
     <g id="text_8">
      <!-- −1.00 -->
      <defs>
       <path d="M 10.6875 12.40625 
L 21 12.40625 
L 21 0 
L 10.6875 0 
z
" id="DejaVuSans-2e"/>
      </defs>
      <g transform="translate(16.354687 246.04261)scale(0.1 -0.1)">
       <use xlink:href="#DejaVuSans-2212"/>
       <use x="83.789062" xlink:href="#DejaVuSans-31"/>
       <use x="147.412109" xlink:href="#DejaVuSans-2e"/>
       <use x="179.199219" xlink:href="#DejaVuSans-30"/>
       <use x="242.822266" xlink:href="#DejaVuSans-30"/>
      </g>
     </g>
    </g>
    <g id="ytick_2">
     <g id="line2d_9">
      <g>
       <use style="stroke:#000000;stroke-width:0.8;" x="54" xlink:href="#m0b59189259" y="217.502546"/>
      </g>
     </g>
     <g id="text_9">
      <!-- −0.75 -->
      <defs>
       <path d="M 8.203125 72.90625 
L 55.078125 72.90625 
L 55.078125 68.703125 
L 28.609375 0 
L 18.3125 0 
L 43.21875 64.59375 
L 8.203125 64.59375 
z
" id="DejaVuSans-37"/>
       <path d="M 10.796875 72.90625 
L 49.515625 72.90625 
L 49.515625 64.59375 
L 19.828125 64.59375 
L 19.828125 46.734375 
Q 21.96875 47.46875 24.109375 47.828125 
Q 26.265625 48.1875 28.421875 48.1875 
Q 40.625 48.1875 47.75 41.5 
Q 54.890625 34.8125 54.890625 23.390625 
Q 54.890625 11.625 47.5625 5.09375 
Q 40.234375 -1.421875 26.90625 -1.421875 
Q 22.3125 -1.421875 17.546875 -0.640625 
Q 12.796875 0.140625 7.71875 1.703125 
L 7.71875 11.625 
Q 12.109375 9.234375 16.796875 8.0625 
Q 21.484375 6.890625 26.703125 6.890625 
Q 35.15625 6.890625 40.078125 11.328125 
Q 45.015625 15.765625 45.015625 23.390625 
Q 45.015625 31 40.078125 35.4375 
Q 35.15625 39.890625 26.703125 39.890625 
Q 22.75 39.890625 18.8125 39.015625 
Q 14.890625 38.140625 10.796875 36.28125 
z
" id="DejaVuSans-35"/>
      </defs>
      <g transform="translate(16.354687 221.301765)scale(0.1 -0.1)">
       <use xlink:href="#DejaVuSans-2212"/>
       <use x="83.789062" xlink:href="#DejaVuSans-30"/>
       <use x="147.412109" xlink:href="#DejaVuSans-2e"/>
       <use x="179.199219" xlink:href="#DejaVuSans-37"/>
       <use x="242.822266" xlink:href="#DejaVuSans-35"/>
      </g>
     </g>
    </g>
    <g id="ytick_3">
     <g id="line2d_10">
      <g>
       <use style="stroke:#000000;stroke-width:0.8;" x="54" xlink:href="#m0b59189259" y="192.7617"/>
      </g>
     </g>
     <g id="text_10">
      <!-- −0.50 -->
      <g transform="translate(16.354687 196.560919)scale(0.1 -0.1)">
       <use xlink:href="#DejaVuSans-2212"/>
       <use x="83.789062" xlink:href="#DejaVuSans-30"/>
       <use x="147.412109" xlink:href="#DejaVuSans-2e"/>
       <use x="179.199219" xlink:href="#DejaVuSans-35"/>
       <use x="242.822266" xlink:href="#DejaVuSans-30"/>
      </g>
     </g>
    </g>
    <g id="ytick_4">
     <g id="line2d_11">
      <g>
       <use style="stroke:#000000;stroke-width:0.8;" x="54" xlink:href="#m0b59189259" y="168.020855"/>
      </g>
     </g>
     <g id="text_11">
      <!-- −0.25 -->
      <g transform="translate(16.354687 171.820073)scale(0.1 -0.1)">
       <use xlink:href="#DejaVuSans-2212"/>
       <use x="83.789062" xlink:href="#DejaVuSans-30"/>
       <use x="147.412109" xlink:href="#DejaVuSans-2e"/>
       <use x="179.199219" xlink:href="#DejaVuSans-32"/>
       <use x="242.822266" xlink:href="#DejaVuSans-35"/>
      </g>
     </g>
    </g>
    <g id="ytick_5">
     <g id="line2d_12">
      <g>
       <use style="stroke:#000000;stroke-width:0.8;" x="54" xlink:href="#m0b59189259" y="143.280009"/>
      </g>
     </g>
     <g id="text_12">
      <!-- 0.00 -->
      <g transform="translate(24.734375 147.079228)scale(0.1 -0.1)">
       <use xlink:href="#DejaVuSans-30"/>
       <use x="63.623047" xlink:href="#DejaVuSans-2e"/>
       <use x="95.410156" xlink:href="#DejaVuSans-30"/>
       <use x="159.033203" xlink:href="#DejaVuSans-30"/>
      </g>
     </g>
    </g>
    <g id="ytick_6">
     <g id="line2d_13">
      <g>
       <use style="stroke:#000000;stroke-width:0.8;" x="54" xlink:href="#m0b59189259" y="118.539163"/>
      </g>
     </g>
     <g id="text_13">
      <!-- 0.25 -->
      <g transform="translate(24.734375 122.338382)scale(0.1 -0.1)">
       <use xlink:href="#DejaVuSans-30"/>
       <use x="63.623047" xlink:href="#DejaVuSans-2e"/>
       <use x="95.410156" xlink:href="#DejaVuSans-32"/>
       <use x="159.033203" xlink:href="#DejaVuSans-35"/>
      </g>
     </g>
    </g>
    <g id="ytick_7">
     <g id="line2d_14">
      <g>
       <use style="stroke:#000000;stroke-width:0.8;" x="54" xlink:href="#m0b59189259" y="93.798317"/>
      </g>
     </g>
     <g id="text_14">
      <!-- 0.50 -->
      <g transform="translate(24.734375 97.597536)scale(0.1 -0.1)">
       <use xlink:href="#DejaVuSans-30"/>
       <use x="63.623047" xlink:href="#DejaVuSans-2e"/>
       <use x="95.410156" xlink:href="#DejaVuSans-35"/>
       <use x="159.033203" xlink:href="#DejaVuSans-30"/>
      </g>
     </g>
    </g>
    <g id="ytick_8">
     <g id="line2d_15">
      <g>
       <use style="stroke:#000000;stroke-width:0.8;" x="54" xlink:href="#m0b59189259" y="69.057472"/>
      </g>
     </g>
     <g id="text_15">
      <!-- 0.75 -->
      <g transform="translate(24.734375 72.85669)scale(0.1 -0.1)">
       <use xlink:href="#DejaVuSans-30"/>
       <use x="63.623047" xlink:href="#DejaVuSans-2e"/>
       <use x="95.410156" xlink:href="#DejaVuSans-37"/>
       <use x="159.033203" xlink:href="#DejaVuSans-35"/>
      </g>
     </g>
    </g>
    <g id="ytick_9">
     <g id="line2d_16">
      <g>
       <use style="stroke:#000000;stroke-width:0.8;" x="54" xlink:href="#m0b59189259" y="44.316626"/>
      </g>
     </g>
     <g id="text_16">
      <!-- 1.00 -->
      <g transform="translate(24.734375 48.115845)scale(0.1 -0.1)">
       <use xlink:href="#DejaVuSans-31"/>
       <use x="63.623047" xlink:href="#DejaVuSans-2e"/>
       <use x="95.410156" xlink:href="#DejaVuSans-30"/>
       <use x="159.033203" xlink:href="#DejaVuSans-30"/>
      </g>
     </g>
    </g>
   </g>
   <g id="line2d_17">
    <path clip-path="url(#p31a8df5065)" d="M 69.218182 163.318963 
L 71.614745 110.954526 
L 74.011308 82.6604 
L 76.407871 154.36487 
L 78.804434 167.122082 
L 81.200996 152.945091 
L 83.597571 157.86645 
L 85.994134 129.008059 
L 88.390697 153.255022 
L 90.78726 92.280263 
L 93.183823 129.357087 
L 95.580386 161.909158 
L 97.976949 143.783987 
L 100.373512 115.056274 
L 102.770075 113.234064 
L 105.16665 129.254152 
L 107.563213 161.035334 
L 109.959776 150.973867 
L 112.356339 111.717048 
L 114.752902 137.420629 
L 117.149464 131.22371 
L 119.546027 140.144226 
L 121.94259 145.890027 
L 124.339153 119.238847 
L 126.735722 145.849947 
L 129.132285 145.132501 
L 131.528848 150.387672 
L 133.925411 146.907119 
L 136.321974 152.58875 
L 138.718537 142.725703 
L 141.115106 147.434746 
L 143.511669 135.594627 
L 145.908232 150.727093 
L 148.304795 149.542074 
L 150.701357 140.189491 
L 153.097926 155.731385 
L 157.891052 150.661279 
L 160.287615 149.933089 
L 162.684178 142.172587 
L 165.080747 151.864642 
L 167.47731 145.658135 
L 169.873873 149.514908 
L 172.270436 139.797042 
L 174.666999 142.916067 
L 177.063562 141.763647 
L 179.460125 140.931028 
L 181.856688 145.70437 
L 184.253263 142.003072 
L 186.649826 145.000019 
L 189.046388 146.942659 
L 191.442951 143.238938 
L 193.839514 145.808918 
L 196.236077 143.481779 
L 198.63264 144.044086 
L 201.029203 142.851139 
L 203.425766 142.162099 
L 205.822329 142.187956 
L 208.218892 144.084683 
L 210.615467 144.283424 
L 213.01203 142.185161 
L 215.408593 143.469933 
L 217.805156 141.637196 
L 220.201719 142.045394 
L 222.598281 143.995959 
L 224.994844 145.024307 
L 227.391407 140.09602 
L 229.78797 145.124839 
L 232.184533 143.918157 
L 234.581108 141.07253 
L 236.977671 142.259654 
L 239.374234 144.490998 
L 241.770797 142.52531 
L 244.16736 142.637672 
L 246.563923 143.335784 
L 248.960486 144.688488 
L 251.357049 143.173095 
L 253.753612 146.321002 
L 256.150174 145.558012 
L 258.546737 147.420923 
L 260.943312 143.667317 
L 263.339875 143.274461 
L 265.736438 143.224509 
L 268.133001 148.58628 
L 270.529564 143.128427 
L 272.926127 142.590772 
L 275.32269 150.157774 
L 277.719253 145.758707 
L 280.115816 143.310491 
L 282.512379 139.137224 
L 284.908942 146.99655 
L 287.305505 145.633726 
L 289.702067 136.525001 
L 292.09863 139.978288 
L 294.495193 134.215085 
L 296.891756 156.432829 
L 299.288343 136.196561 
L 301.684906 135.463995 
L 304.081469 144.667876 
L 306.478032 137.24577 
L 308.874595 128.854466 
L 311.271158 141.340777 
L 313.667721 144.341752 
L 316.064284 130.223045 
L 318.460847 145.356309 
L 320.85741 147.148886 
L 323.253973 147.454388 
L 325.650536 157.09636 
L 328.047098 125.08123 
L 330.443661 137.864909 
L 332.840224 121.998829 
L 335.236787 149.91123 
L 337.63335 143.091206 
L 340.029913 114.783646 
L 342.426476 141.34079 
L 344.823039 142.020987 
L 347.219602 169.908228 
L 349.616189 118.230833 
L 352.012752 117.530315 
L 354.409315 145.578249 
L 356.805878 117.059397 
L 359.202441 149.853117 
L 361.599004 137.752583 
L 363.995566 153.340555 
L 366.392129 113.227581 
L 368.788692 107.312013 
L 371.185255 142.712067 
L 373.581818 92.147696 
L 373.581818 92.147696 
" style="fill:none;stroke:#008000;stroke-linecap:square;stroke-width:0.3;"/>
   </g>
   <g id="line2d_18">
    <path clip-path="url(#p31a8df5065)" d="M 69.218182 85.543349 
L 71.614745 154.725636 
L 74.011308 119.236027 
L 76.407871 142.093461 
L 78.804434 147.338649 
L 81.200996 120.004409 
L 83.597571 151.458301 
L 85.994134 116.301435 
L 88.390697 155.197463 
L 90.78726 166.043821 
L 93.183823 113.349203 
L 95.580386 185.705062 
L 97.976949 165.212058 
L 100.373512 124.625171 
L 102.770075 173.138361 
L 105.16665 117.186431 
L 107.563213 172.368531 
L 109.959776 102.317317 
L 112.356339 158.662506 
L 114.752902 113.081465 
L 117.149464 124.589664 
L 119.546027 145.07237 
L 121.94259 127.611995 
L 124.339153 146.078978 
L 126.735722 151.678602 
L 129.132285 155.283874 
L 131.528848 149.914992 
L 133.925411 143.961698 
L 136.321974 164.956197 
L 138.718537 162.426245 
L 141.115106 138.991974 
L 143.511669 154.599381 
L 145.908232 145.577196 
L 148.304795 152.071431 
L 150.701357 150.582818 
L 153.097926 137.928586 
L 155.494489 138.33208 
L 160.287615 144.045758 
L 162.684178 150.512843 
L 165.080747 145.748534 
L 167.47731 139.995771 
L 169.873873 140.086706 
L 172.270436 145.048645 
L 174.666999 147.783406 
L 177.063562 145.092854 
L 179.460125 141.713335 
L 181.856688 144.640146 
L 184.253263 144.634817 
L 186.649826 142.681274 
L 189.046388 147.337525 
L 191.442951 144.17622 
L 193.839514 142.925369 
L 196.236077 144.832552 
L 198.63264 143.52253 
L 201.029203 140.683418 
L 203.425766 141.018211 
L 205.822329 142.961472 
L 208.218892 144.294524 
L 210.615467 145.392789 
L 213.01203 144.94603 
L 215.408593 143.54876 
L 217.805156 142.973059 
L 220.201719 143.377649 
L 222.598281 142.947696 
L 224.994844 142.017763 
L 227.391407 143.663498 
L 229.78797 142.477826 
L 232.184533 141.635991 
L 234.581108 145.466324 
L 236.977671 144.46352 
L 239.374234 143.754448 
L 241.770797 143.879832 
L 244.16736 144.476647 
L 246.563923 144.447799 
L 248.960486 142.137897 
L 251.357049 144.60818 
L 253.753612 141.279916 
L 256.150174 145.155489 
L 258.546737 144.034216 
L 260.943312 143.94747 
L 263.339875 144.180267 
L 265.736438 147.013908 
L 268.133001 140.483681 
L 270.529564 144.007243 
L 272.926127 140.32352 
L 275.32269 140.704185 
L 277.719253 133.635127 
L 280.115816 146.061843 
L 282.512379 133.615648 
L 284.908942 157.143189 
L 287.305505 133.461206 
L 289.702067 142.800974 
L 292.09863 146.151866 
L 294.495193 133.581779 
L 296.891756 126.798668 
L 299.288343 146.427241 
L 301.684906 133.395327 
L 304.081469 143.977926 
L 306.478032 150.443629 
L 308.874595 144.30855 
L 311.271158 132.221349 
L 313.667721 135.055305 
L 316.064284 131.829656 
L 318.460847 133.422373 
L 320.85741 138.270587 
L 323.253973 125.627618 
L 325.650536 151.738857 
L 328.047098 126.23863 
L 330.443661 125.037768 
L 332.840224 134.381952 
L 335.236787 140.497429 
L 337.63335 118.524891 
L 340.029913 118.743508 
L 342.426476 105.086062 
L 344.823039 118.969162 
L 347.219602 157.156211 
L 349.616189 131.783097 
L 352.012752 115.578189 
L 354.409315 164.644573 
L 356.805878 124.106229 
L 359.202441 121.305867 
L 361.599004 150.24244 
L 363.995566 174.030999 
L 366.392129 138.752794 
L 368.788692 117.061819 
L 371.185255 110.439415 
L 373.581818 191.564452 
L 373.581818 191.564452 
" style="fill:none;stroke:#008000;stroke-linecap:square;stroke-width:0.3;"/>
   </g>
   <g id="line2d_19">
    <path clip-path="url(#p31a8df5065)" d="M 69.218182 128.327004 
L 71.614745 164.275991 
L 74.011308 106.245007 
L 76.407871 146.30535 
L 78.804434 101.204555 
L 81.200996 92.505145 
L 83.597571 166.92148 
L 85.994134 180.936118 
L 88.390697 126.811321 
L 90.78726 130.762243 
L 93.183823 137.941611 
L 95.580386 147.480762 
L 97.976949 114.580688 
L 100.373512 172.76734 
L 102.770075 134.383185 
L 105.16665 143.214755 
L 107.563213 122.778127 
L 109.959776 122.498279 
L 112.356339 137.945398 
L 114.752902 134.36133 
L 117.149464 122.285077 
L 119.546027 140.465812 
L 121.94259 138.811764 
L 124.339153 157.792873 
L 126.735722 122.161231 
L 129.132285 159.76002 
L 131.528848 162.858023 
L 133.925411 138.907799 
L 136.321974 140.414482 
L 138.718537 151.314669 
L 141.115106 137.466703 
L 143.511669 135.342042 
L 145.908232 132.206267 
L 148.304795 160.023788 
L 150.701357 146.6193 
L 153.097926 153.581493 
L 155.494489 155.252639 
L 157.891052 131.763781 
L 160.287615 143.171508 
L 162.684178 140.170656 
L 165.080747 146.090395 
L 167.47731 145.06135 
L 169.873873 147.762854 
L 172.270436 151.461659 
L 174.666999 145.171679 
L 177.063562 140.481883 
L 179.460125 142.473459 
L 181.856688 145.184342 
L 184.253263 143.195609 
L 186.649826 142.217471 
L 189.046388 142.460539 
L 191.442951 144.578526 
L 193.839514 145.263887 
L 196.236077 144.455266 
L 198.63264 146.94239 
L 201.029203 146.221984 
L 203.425766 144.305785 
L 205.822329 143.330344 
L 208.218892 144.164508 
L 210.615467 143.116585 
L 213.01203 141.653991 
L 215.408593 145.542637 
L 217.805156 142.720861 
L 220.201719 144.036442 
L 222.598281 143.532023 
L 224.994844 142.079825 
L 227.391407 145.245533 
L 229.78797 142.978503 
L 232.184533 144.192421 
L 234.581108 142.212656 
L 236.977671 144.191884 
L 239.374234 143.732491 
L 241.770797 142.860415 
L 244.16736 145.302796 
L 246.563923 142.794942 
L 248.960486 142.644687 
L 251.357049 143.566101 
L 253.753612 142.012681 
L 256.150174 143.298849 
L 258.546737 141.360308 
L 260.943312 140.492662 
L 263.339875 141.732145 
L 265.736438 140.990279 
L 268.133001 137.44601 
L 270.529564 144.198585 
L 272.926127 141.952672 
L 275.32269 142.471664 
L 277.719253 148.075506 
L 280.115816 137.707004 
L 282.512379 146.543408 
L 284.908942 137.436358 
L 287.305505 143.850036 
L 289.702067 137.565681 
L 292.09863 151.612161 
L 294.495193 153.280905 
L 296.891756 157.030825 
L 299.288343 134.192266 
L 301.684906 144.320967 
L 304.081469 138.994674 
L 306.478032 135.357052 
L 308.874595 134.51867 
L 311.271158 170.415024 
L 313.667721 111.532245 
L 316.064284 117.576354 
L 318.460847 150.547374 
L 320.85741 142.544035 
L 323.253973 127.287011 
L 325.650536 137.14669 
L 328.047098 129.193543 
L 330.443661 148.920971 
L 332.840224 111.656554 
L 335.236787 121.084785 
L 337.63335 138.315051 
L 340.029913 161.338234 
L 342.426476 138.502373 
L 344.823039 142.404018 
L 347.219602 133.4534 
L 349.616189 147.366141 
L 352.012752 128.466885 
L 354.409315 121.595896 
L 356.805878 129.585576 
L 359.202441 119.124934 
L 361.599004 106.541944 
L 363.995566 155.73898 
L 366.392129 170.738127 
L 368.788692 115.619884 
L 371.185255 86.52549 
L 373.581818 103.442304 
L 373.581818 103.442304 
" style="fill:none;stroke:#008000;stroke-linecap:square;stroke-width:0.3;"/>
   </g>
   <g id="line2d_20">
    <path clip-path="url(#p31a8df5065)" d="M 69.218182 100.992577 
L 71.614745 143.429694 
L 74.011308 137.005702 
L 76.407871 79.102046 
L 78.804434 133.242242 
L 81.200996 116.623751 
L 83.597571 131.823383 
L 85.994134 156.858708 
L 88.390697 122.931837 
L 90.78726 128.274712 
L 93.183823 91.54681 
L 95.580386 153.471318 
L 97.976949 114.383283 
L 100.373512 119.872497 
L 102.770075 166.821577 
L 105.16665 137.868862 
L 107.563213 161.049939 
L 109.959776 144.678047 
L 112.356339 160.474302 
L 114.752902 156.22493 
L 117.149464 165.290445 
L 119.546027 126.365599 
L 121.94259 119.5155 
L 124.339153 140.682465 
L 126.735722 153.165234 
L 129.132285 121.16682 
L 131.528848 125.141255 
L 133.925411 134.411901 
L 136.321974 156.181097 
L 138.718537 147.096523 
L 141.115106 136.505113 
L 143.511669 138.309996 
L 145.908232 139.064519 
L 148.304795 123.248587 
L 150.701357 153.867694 
L 153.097926 148.594932 
L 155.494489 143.727007 
L 157.891052 143.563074 
L 160.287615 143.567125 
L 162.684178 143.062518 
L 165.080747 146.432432 
L 167.47731 139.687392 
L 169.873873 148.285811 
L 172.270436 150.562372 
L 174.666999 146.386875 
L 177.063562 142.939915 
L 179.460125 145.605566 
L 181.856688 141.335326 
L 184.253263 143.752623 
L 186.649826 139.705219 
L 189.046388 142.451978 
L 191.442951 143.043461 
L 193.839514 147.10788 
L 196.236077 143.72209 
L 198.63264 141.507925 
L 201.029203 143.457047 
L 203.425766 143.126648 
L 205.822329 144.397382 
L 208.218892 144.297421 
L 210.615467 143.604796 
L 215.408593 142.839551 
L 217.805156 140.510244 
L 220.201719 140.938192 
L 222.598281 143.84594 
L 224.994844 144.433997 
L 227.391407 142.334168 
L 229.78797 144.871606 
L 232.184533 143.507532 
L 234.581108 145.963849 
L 236.977671 143.757929 
L 239.374234 141.118757 
L 241.770797 142.929896 
L 244.16736 142.803511 
L 246.563923 143.016436 
L 248.960486 146.684433 
L 251.357049 142.808432 
L 256.150174 144.409569 
L 258.546737 145.575255 
L 260.943312 144.901235 
L 263.339875 142.324167 
L 265.736438 136.904443 
L 268.133001 138.73328 
L 270.529564 145.616844 
L 272.926127 140.815731 
L 275.32269 132.356921 
L 277.719253 137.29832 
L 280.115816 147.243008 
L 282.512379 146.163467 
L 284.908942 131.136172 
L 287.305505 143.74209 
L 289.702067 132.253862 
L 292.09863 127.318713 
L 296.891756 146.433683 
L 299.288343 136.319592 
L 301.684906 143.565699 
L 304.081469 134.593402 
L 306.478032 143.114399 
L 308.874595 147.671823 
L 311.271158 149.340795 
L 313.667721 144.565181 
L 316.064284 151.669377 
L 318.460847 129.943415 
L 320.85741 125.272023 
L 323.253973 156.045873 
L 325.650536 143.187456 
L 328.047098 145.551399 
L 330.443661 140.668151 
L 332.840224 169.431892 
L 335.236787 145.355023 
L 337.63335 136.559813 
L 340.029913 116.443177 
L 342.426476 150.968675 
L 344.823039 123.742413 
L 347.219602 146.938996 
L 349.616189 117.995865 
L 352.012752 132.634979 
L 354.409315 153.325908 
L 356.805878 115.429782 
L 359.202441 122.379488 
L 361.599004 115.290042 
L 363.995566 150.193776 
L 366.392129 136.106988 
L 368.788692 129.093082 
L 371.185255 163.244327 
L 373.581818 145.526767 
L 373.581818 145.526767 
" style="fill:none;stroke:#008000;stroke-linecap:square;stroke-width:0.3;"/>
   </g>
   <g id="line2d_21">
    <path clip-path="url(#p31a8df5065)" d="M 69.218182 163.930886 
L 71.614745 145.860438 
L 74.011308 150.772126 
L 76.407871 127.380051 
L 78.804434 141.761395 
L 81.200996 157.147003 
L 83.597571 82.811252 
L 85.994134 147.60556 
L 88.390697 119.866637 
L 90.78726 188.179696 
L 93.183823 170.403142 
L 95.580386 125.14034 
L 97.976949 126.568823 
L 100.373512 120.893169 
L 102.770075 128.348787 
L 105.16665 145.03961 
L 107.563213 125.722761 
L 109.959776 137.834961 
L 112.356339 114.439898 
L 114.752902 153.900273 
L 117.149464 124.165274 
L 119.546027 147.119017 
L 121.94259 127.187019 
L 124.339153 152.799138 
L 126.735722 141.471984 
L 129.132285 161.062306 
L 131.528848 130.171089 
L 133.925411 136.029502 
L 136.321974 126.264885 
L 138.718537 157.534162 
L 141.115106 145.098553 
L 143.511669 137.570504 
L 145.908232 146.880646 
L 148.304795 148.556907 
L 150.701357 156.07977 
L 153.097926 152.755851 
L 155.494489 138.958341 
L 157.891052 139.924732 
L 160.287615 144.846923 
L 162.684178 142.976848 
L 165.080747 143.327655 
L 167.47731 142.71056 
L 169.873873 143.642601 
L 172.270436 147.481205 
L 174.666999 143.858065 
L 177.063562 146.219374 
L 179.460125 142.633868 
L 181.856688 140.717771 
L 184.253263 140.079206 
L 186.649826 143.403817 
L 189.046388 145.602997 
L 191.442951 143.517206 
L 193.839514 142.534344 
L 196.236077 140.656852 
L 198.63264 144.456964 
L 201.029203 144.9931 
L 203.425766 141.080165 
L 205.822329 142.643333 
L 208.218892 143.885995 
L 210.615467 142.010693 
L 213.01203 143.216896 
L 215.408593 143.858718 
L 217.805156 143.704249 
L 220.201719 142.230597 
L 222.598281 144.370545 
L 224.994844 141.741782 
L 227.391407 143.588055 
L 229.78797 142.293543 
L 232.184533 145.629526 
L 234.581108 144.218177 
L 236.977671 144.418139 
L 239.374234 142.883115 
L 241.770797 145.373233 
L 244.16736 146.226745 
L 246.563923 143.279094 
L 248.960486 143.407726 
L 251.357049 147.209515 
L 253.753612 144.444948 
L 256.150174 141.919709 
L 258.546737 140.33883 
L 260.943312 142.086883 
L 263.339875 143.293192 
L 265.736438 142.68421 
L 268.133001 143.652276 
L 270.529564 147.900216 
L 272.926127 141.634194 
L 275.32269 145.179679 
L 277.719253 134.839852 
L 280.115816 141.041534 
L 282.512379 140.781018 
L 284.908942 147.670771 
L 287.305505 133.623162 
L 289.702067 138.733323 
L 292.09863 139.680855 
L 294.495193 126.360249 
L 296.891756 142.547035 
L 299.288343 136.108996 
L 301.684906 151.123628 
L 304.081469 131.226627 
L 306.478032 131.540837 
L 308.874595 141.27276 
L 311.271158 137.603705 
L 313.667721 123.250342 
L 316.064284 150.771166 
L 318.460847 137.481555 
L 320.85741 164.626425 
L 323.253973 125.097932 
L 325.650536 125.550767 
L 328.047098 152.597152 
L 330.443661 171.278434 
L 332.840224 138.831662 
L 335.236787 128.819157 
L 337.63335 137.812067 
L 340.029913 129.784878 
L 342.426476 111.631231 
L 344.823039 147.016289 
L 347.219602 163.81367 
L 349.616189 132.3761 
L 352.012752 146.511245 
L 354.409315 110.492586 
L 356.805878 151.794561 
L 359.202441 124.707549 
L 361.599004 139.169063 
L 363.995566 143.36164 
L 366.392129 102.90545 
L 368.788692 136.728768 
L 371.185255 142.103381 
L 373.581818 153.77575 
L 373.581818 153.77575 
" style="fill:none;stroke:#008000;stroke-linecap:square;stroke-width:0.3;"/>
   </g>
   <g id="line2d_22">
    <path clip-path="url(#p31a8df5065)" d="M 69.218182 142.807478 
L 71.614745 87.649637 
L 74.011308 122.648884 
L 76.407871 105.532996 
L 78.804434 152.758825 
L 81.200996 117.714729 
L 83.597571 181.559959 
L 85.994134 135.820312 
L 88.390697 149.786346 
L 90.78726 84.915488 
L 93.183823 162.706326 
L 95.580386 163.754586 
L 97.976949 180.35434 
L 100.373512 145.586646 
L 102.770075 116.30365 
L 105.16665 122.844732 
L 107.563213 143.096501 
L 109.959776 140.309461 
L 112.356339 163.246424 
L 114.752902 152.193426 
L 117.149464 153.603942 
L 119.546027 157.636033 
L 121.94259 138.1061 
L 124.339153 149.455826 
L 126.735722 124.007845 
L 129.132285 115.744417 
L 131.528848 139.864526 
L 133.925411 122.363084 
L 136.321974 148.810222 
L 138.718537 155.476208 
L 141.115106 125.916898 
L 143.511669 118.185897 
L 145.908232 139.374888 
L 148.304795 133.744807 
L 153.097926 142.560457 
L 155.494489 148.825958 
L 157.891052 130.620451 
L 160.287615 140.085259 
L 162.684178 144.883023 
L 165.080747 150.751544 
L 167.47731 143.359801 
L 169.873873 137.985527 
L 172.270436 140.914844 
L 174.666999 137.536879 
L 177.063562 146.403647 
L 179.460125 141.594773 
L 181.856688 145.801388 
L 184.253263 145.147142 
L 186.649826 146.623792 
L 189.046388 147.067314 
L 193.839514 140.816348 
L 196.236077 142.696204 
L 198.63264 140.763039 
L 201.029203 144.107254 
L 203.425766 143.002623 
L 205.822329 140.958654 
L 208.218892 143.293284 
L 210.615467 144.073725 
L 215.408593 142.899995 
L 217.805156 142.410385 
L 220.201719 141.179705 
L 222.598281 142.568344 
L 224.994844 143.709066 
L 227.391407 145.389782 
L 229.78797 144.022802 
L 232.184533 144.533091 
L 234.581108 142.466029 
L 236.977671 143.601142 
L 239.374234 141.337191 
L 241.770797 143.61146 
L 244.16736 143.900938 
L 246.563923 142.76921 
L 248.960486 148.007968 
L 251.357049 143.054057 
L 253.753612 142.374311 
L 256.150174 142.224681 
L 258.546737 140.384187 
L 260.943312 142.195686 
L 263.339875 142.241513 
L 265.736438 140.658091 
L 268.133001 138.870901 
L 270.529564 146.229266 
L 272.926127 143.679462 
L 275.32269 140.799955 
L 277.719253 136.074241 
L 280.115816 141.038011 
L 282.512379 140.049683 
L 284.908942 141.575558 
L 287.305505 124.927543 
L 289.702067 143.872617 
L 292.09863 131.137123 
L 294.495193 152.450585 
L 296.891756 142.214063 
L 299.288343 158.780164 
L 301.684906 147.249561 
L 304.081469 148.695176 
L 306.478032 138.087219 
L 308.874595 122.787511 
L 311.271158 138.71733 
L 313.667721 142.696535 
L 316.064284 151.983118 
L 318.460847 130.911539 
L 320.85741 126.318911 
L 323.253973 162.35342 
L 325.650536 139.449477 
L 328.047098 134.296475 
L 330.443661 142.170702 
L 332.840224 143.623648 
L 335.236787 119.229081 
L 337.63335 119.100983 
L 340.029913 143.381676 
L 342.426476 156.439772 
L 344.823039 140.278199 
L 347.219602 104.02596 
L 349.616189 139.448008 
L 352.012752 113.5331 
L 354.409315 151.431891 
L 356.805878 119.534839 
L 359.202441 130.050479 
L 361.599004 157.762574 
L 363.995566 109.155376 
L 366.392129 104.436131 
L 368.788692 89.421635 
L 371.185255 107.601783 
L 373.581818 98.913695 
L 373.581818 98.913695 
" style="fill:none;stroke:#008000;stroke-linecap:square;stroke-width:0.3;"/>
   </g>
   <g id="line2d_23">
    <path clip-path="url(#p31a8df5065)" d="M 69.218182 155.982566 
L 71.614745 147.23299 
L 74.011308 105.639437 
L 76.407871 121.783707 
L 78.804434 173.874643 
L 81.200996 165.036242 
L 83.597571 174.787283 
L 85.994134 93.11528 
L 88.390697 123.886524 
L 90.78726 102.724553 
L 93.183823 122.813451 
L 95.580386 137.154363 
L 97.976949 167.176179 
L 100.373512 165.53394 
L 102.770075 115.948603 
L 105.16665 117.808565 
L 107.563213 115.978662 
L 109.959776 177.264834 
L 112.356339 140.339605 
L 114.752902 140.280233 
L 117.149464 147.996444 
L 119.546027 146.869951 
L 121.94259 140.04887 
L 124.339153 115.328661 
L 126.735722 143.471362 
L 129.132285 148.011144 
L 131.528848 127.52601 
L 133.925411 145.585222 
L 136.321974 158.200256 
L 138.718537 140.983811 
L 141.115106 154.993259 
L 143.511669 142.930833 
L 145.908232 151.62638 
L 148.304795 145.435569 
L 150.701357 147.388969 
L 153.097926 153.811041 
L 155.494489 135.855144 
L 157.891052 142.129416 
L 160.287615 144.994411 
L 162.684178 134.721999 
L 165.080747 153.598569 
L 167.47731 141.940341 
L 169.873873 141.849056 
L 172.270436 139.464902 
L 174.666999 144.807145 
L 177.063562 141.628247 
L 179.460125 139.252141 
L 181.856688 147.743527 
L 184.253263 143.898972 
L 186.649826 142.280224 
L 189.046388 144.788295 
L 191.442951 143.995254 
L 193.839514 141.959891 
L 196.236077 145.0661 
L 198.63264 142.571123 
L 201.029203 141.800304 
L 203.425766 144.424098 
L 205.822329 144.43529 
L 208.218892 143.825956 
L 210.615467 143.750803 
L 213.01203 143.107899 
L 215.408593 144.744508 
L 217.805156 142.721118 
L 220.201719 144.330764 
L 222.598281 143.882648 
L 224.994844 144.160402 
L 227.391407 142.090258 
L 229.78797 144.023443 
L 232.184533 143.510829 
L 234.581108 142.066719 
L 236.977671 145.114262 
L 239.374234 141.497192 
L 241.770797 144.140511 
L 244.16736 143.328785 
L 246.563923 140.054218 
L 248.960486 145.223314 
L 251.357049 144.039528 
L 253.753612 142.373818 
L 256.150174 144.561768 
L 258.546737 143.671779 
L 260.943312 141.744913 
L 263.339875 140.842806 
L 265.736438 142.819006 
L 268.133001 139.789407 
L 270.529564 135.253174 
L 272.926127 142.314776 
L 275.32269 134.863238 
L 277.719253 143.939959 
L 280.115816 148.672318 
L 282.512379 139.717473 
L 284.908942 137.059758 
L 287.305505 144.940943 
L 289.702067 133.943632 
L 292.09863 135.937723 
L 294.495193 152.934951 
L 296.891756 141.506096 
L 299.288343 138.655563 
L 301.684906 124.463827 
L 304.081469 143.128354 
L 306.478032 136.377344 
L 308.874595 143.966784 
L 311.271158 145.661919 
L 313.667721 120.264113 
L 316.064284 162.10546 
L 318.460847 141.846327 
L 320.85741 128.864515 
L 323.253973 99.962385 
L 325.650536 143.290988 
L 328.047098 110.753658 
L 330.443661 145.131954 
L 332.840224 158.411499 
L 335.236787 143.907271 
L 337.63335 132.826129 
L 340.029913 107.068318 
L 342.426476 139.602755 
L 344.823039 127.273105 
L 347.219602 159.515366 
L 349.616189 157.119471 
L 352.012752 172.836546 
L 354.409315 129.30117 
L 356.805878 133.058146 
L 359.202441 143.884181 
L 361.599004 157.367018 
L 363.995566 141.277169 
L 366.392129 101.050709 
L 368.788692 122.378636 
L 371.185255 120.811702 
L 373.581818 105.578707 
L 373.581818 105.578707 
" style="fill:none;stroke:#008000;stroke-linecap:square;stroke-width:0.3;"/>
   </g>
   <g id="line2d_24">
    <path clip-path="url(#p31a8df5065)" d="M 69.218182 168.492926 
L 71.614745 83.445885 
L 74.011308 121.979738 
L 76.407871 176.311997 
L 78.804434 127.203441 
L 81.200996 127.688985 
L 83.597571 137.672104 
L 85.994134 180.629572 
L 88.390697 157.593025 
L 90.78726 89.043152 
L 93.183823 167.942402 
L 95.580386 158.060578 
L 97.976949 102.797838 
L 100.373512 163.696404 
L 102.770075 166.664014 
L 105.16665 129.537846 
L 107.563213 161.66377 
L 112.356339 141.619276 
L 114.752902 121.372613 
L 117.149464 158.952125 
L 119.546027 153.008967 
L 121.94259 120.989441 
L 124.339153 124.604393 
L 126.735722 145.740284 
L 129.132285 160.099651 
L 131.528848 149.203721 
L 133.925411 135.789114 
L 136.321974 128.982736 
L 138.718537 141.864862 
L 141.115106 139.439782 
L 143.511669 119.224215 
L 145.908232 159.767068 
L 148.304795 140.854437 
L 150.701357 153.746867 
L 153.097926 152.354924 
L 155.494489 142.416283 
L 157.891052 152.215938 
L 160.287615 155.079011 
L 162.684178 132.299651 
L 165.080747 141.40687 
L 167.47731 136.681717 
L 169.873873 142.753813 
L 172.270436 140.761471 
L 174.666999 149.397832 
L 177.063562 142.840243 
L 179.460125 143.144621 
L 181.856688 143.307087 
L 184.253263 143.213394 
L 186.649826 146.451955 
L 191.442951 146.203109 
L 193.839514 141.92367 
L 196.236077 139.357481 
L 198.63264 142.386826 
L 201.029203 143.241478 
L 203.425766 144.538162 
L 205.822329 144.418477 
L 208.218892 143.86359 
L 213.01203 145.057477 
L 215.408593 143.532961 
L 217.805156 142.776555 
L 220.201719 143.598737 
L 222.598281 143.084298 
L 224.994844 142.142035 
L 227.391407 143.227655 
L 229.78797 143.536965 
L 232.184533 141.918589 
L 234.581108 145.304853 
L 236.977671 142.95176 
L 239.374234 142.481461 
L 241.770797 141.402477 
L 244.16736 143.53047 
L 246.563923 144.630055 
L 248.960486 145.284147 
L 251.357049 141.664542 
L 253.753612 143.275988 
L 256.150174 143.135698 
L 258.546737 141.627935 
L 260.943312 141.649785 
L 263.339875 144.883558 
L 265.736438 146.680665 
L 268.133001 144.621284 
L 270.529564 138.604539 
L 272.926127 142.249825 
L 275.32269 143.596635 
L 277.719253 149.285547 
L 280.115816 146.189279 
L 282.512379 144.176447 
L 284.908942 144.831803 
L 287.305505 137.328686 
L 289.702067 144.273378 
L 292.09863 150.378213 
L 294.495193 149.435051 
L 296.891756 145.5222 
L 299.288343 142.742644 
L 301.684906 158.559417 
L 304.081469 137.036505 
L 306.478032 140.9745 
L 308.874595 147.991495 
L 311.271158 138.061721 
L 313.667721 120.556573 
L 316.064284 128.628662 
L 318.460847 148.320667 
L 320.85741 152.277819 
L 323.253973 141.25429 
L 325.650536 126.658687 
L 328.047098 155.87467 
L 330.443661 137.635544 
L 332.840224 150.092655 
L 335.236787 131.079077 
L 337.63335 129.518839 
L 340.029913 134.004172 
L 342.426476 150.391205 
L 344.823039 171.272096 
L 347.219602 146.936044 
L 349.616189 119.48212 
L 352.012752 145.334706 
L 354.409315 126.503071 
L 356.805878 156.783326 
L 359.202441 129.576511 
L 361.599004 127.036323 
L 363.995566 143.532464 
L 366.392129 144.917003 
L 368.788692 136.21642 
L 371.185255 126.898828 
L 373.581818 83.082373 
L 373.581818 83.082373 
" style="fill:none;stroke:#008000;stroke-linecap:square;stroke-width:0.3;"/>
   </g>
   <g id="line2d_25">
    <path clip-path="url(#p31a8df5065)" d="M 69.218182 129.317421 
L 71.614745 179.96375 
L 74.011308 165.896472 
L 76.407871 169.779619 
L 78.804434 172.121332 
L 81.200996 132.9453 
L 83.597571 183.565633 
L 85.994134 142.220725 
L 88.390697 174.628969 
L 90.78726 106.98415 
L 93.183823 174.280743 
L 95.580386 137.075519 
L 97.976949 146.138778 
L 100.373512 150.901665 
L 102.770075 125.918361 
L 105.16665 146.886314 
L 107.563213 116.726733 
L 109.959776 146.076916 
L 112.356339 118.619143 
L 114.752902 157.942189 
L 117.149464 187.247452 
L 119.546027 177.880992 
L 121.94259 153.446676 
L 124.339153 120.179824 
L 126.735722 141.152471 
L 129.132285 147.151395 
L 131.528848 162.039401 
L 133.925411 143.67379 
L 136.321974 149.185473 
L 138.718537 162.09102 
L 141.115106 134.03382 
L 143.511669 147.234454 
L 145.908232 137.147999 
L 148.304795 152.066724 
L 150.701357 140.361523 
L 153.097926 159.456031 
L 155.494489 132.795568 
L 157.891052 131.151141 
L 160.287615 150.876476 
L 165.080747 143.42452 
L 167.47731 141.115525 
L 169.873873 143.064833 
L 172.270436 136.612591 
L 174.666999 139.687022 
L 177.063562 143.179388 
L 179.460125 142.591551 
L 181.856688 143.638433 
L 184.253263 141.588857 
L 186.649826 146.826609 
L 189.046388 142.923751 
L 191.442951 143.572468 
L 193.839514 143.534256 
L 196.236077 143.266719 
L 198.63264 146.202672 
L 201.029203 143.661973 
L 205.822329 143.894158 
L 208.218892 140.897127 
L 210.615467 140.571267 
L 213.01203 141.483471 
L 215.408593 144.025038 
L 217.805156 142.139541 
L 220.201719 143.151102 
L 222.598281 143.404751 
L 224.994844 143.445081 
L 227.391407 144.213486 
L 229.78797 141.407837 
L 232.184533 144.757905 
L 234.581108 145.163207 
L 236.977671 143.954317 
L 239.374234 142.985113 
L 241.770797 143.651019 
L 244.16736 144.170351 
L 246.563923 142.311803 
L 248.960486 140.182909 
L 251.357049 145.39456 
L 253.753612 143.525839 
L 256.150174 141.332604 
L 258.546737 141.943084 
L 260.943312 138.581148 
L 263.339875 139.049745 
L 265.736438 144.591796 
L 268.133001 142.436754 
L 270.529564 136.264532 
L 272.926127 141.980134 
L 275.32269 138.415738 
L 277.719253 140.842679 
L 280.115816 141.010663 
L 282.512379 142.141084 
L 284.908942 146.643641 
L 287.305505 142.56004 
L 289.702067 147.992573 
L 292.09863 142.251089 
L 294.495193 144.715716 
L 296.891756 144.814337 
L 299.288343 141.568881 
L 301.684906 140.292464 
L 304.081469 143.596533 
L 306.478032 137.98956 
L 308.874595 131.917872 
L 311.271158 160.32042 
L 313.667721 134.589799 
L 316.064284 138.206546 
L 318.460847 156.406002 
L 320.85741 134.897517 
L 323.253973 131.482508 
L 325.650536 150.491183 
L 328.047098 155.686511 
L 330.443661 134.447496 
L 332.840224 121.266977 
L 335.236787 155.596221 
L 337.63335 131.697076 
L 340.029913 148.339874 
L 342.426476 127.287459 
L 344.823039 101.997054 
L 347.219602 142.003203 
L 349.616189 113.767478 
L 352.012752 152.827934 
L 354.409315 152.686387 
L 356.805878 160.943268 
L 359.202441 156.006031 
L 361.599004 125.941331 
L 363.995566 157.657578 
L 366.392129 96.57043 
L 368.788692 163.270918 
L 371.185255 111.895389 
L 373.581818 103.670653 
L 373.581818 103.670653 
" style="fill:none;stroke:#008000;stroke-linecap:square;stroke-width:0.3;"/>
   </g>
   <g id="line2d_26">
    <path clip-path="url(#p31a8df5065)" d="M 69.218182 149.047082 
L 71.614745 153.906671 
L 74.011308 167.955022 
L 76.407871 128.638642 
L 78.804434 82.390618 
L 83.597571 141.198467 
L 85.994134 150.631268 
L 88.390697 154.191628 
L 90.78726 137.811605 
L 93.183823 165.685291 
L 95.580386 126.824546 
L 97.976949 128.097221 
L 100.373512 117.881803 
L 102.770075 97.150536 
L 105.16665 121.230933 
L 107.563213 82.844828 
L 109.959776 175.151308 
L 112.356339 107.475642 
L 114.752902 163.359575 
L 117.149464 143.996134 
L 119.546027 141.856689 
L 121.94259 155.94328 
L 124.339153 138.173728 
L 126.735722 133.684519 
L 129.132285 154.692667 
L 131.528848 122.60613 
L 133.925411 131.920066 
L 136.321974 158.602779 
L 138.718537 168.278668 
L 141.115106 135.151464 
L 143.511669 143.402219 
L 145.908232 133.992755 
L 148.304795 156.414104 
L 150.701357 157.077077 
L 153.097926 141.395713 
L 155.494489 146.255161 
L 157.891052 146.194886 
L 160.287615 147.749613 
L 162.684178 139.061324 
L 165.080747 141.029752 
L 167.47731 141.462359 
L 169.873873 147.810962 
L 172.270436 144.064335 
L 174.666999 149.502192 
L 177.063562 138.296814 
L 179.460125 144.825411 
L 181.856688 141.45309 
L 184.253263 144.920073 
L 186.649826 144.495746 
L 189.046388 145.48081 
L 191.442951 144.499913 
L 193.839514 146.746063 
L 196.236077 142.227594 
L 198.63264 146.195702 
L 201.029203 144.995006 
L 203.425766 142.058517 
L 205.822329 142.103018 
L 208.218892 139.528169 
L 210.615467 142.095641 
L 213.01203 143.62544 
L 215.408593 144.007228 
L 217.805156 144.102232 
L 220.201719 141.515998 
L 222.598281 144.980097 
L 224.994844 144.648289 
L 227.391407 144.111313 
L 229.78797 142.765033 
L 232.184533 141.252705 
L 234.581108 140.982765 
L 236.977671 142.781931 
L 239.374234 145.68018 
L 241.770797 140.572408 
L 244.16736 144.310189 
L 246.563923 140.504926 
L 248.960486 143.458203 
L 251.357049 142.420099 
L 253.753612 141.895932 
L 256.150174 139.210134 
L 258.546737 142.090357 
L 260.943312 145.679063 
L 263.339875 140.753763 
L 265.736438 143.344435 
L 268.133001 138.615516 
L 270.529564 145.085138 
L 272.926127 141.55431 
L 275.32269 145.6728 
L 277.719253 137.921523 
L 280.115816 148.764769 
L 282.512379 144.877827 
L 284.908942 147.433116 
L 287.305505 137.957954 
L 289.702067 136.417827 
L 292.09863 141.863191 
L 294.495193 140.830105 
L 296.891756 138.603916 
L 299.288343 134.707636 
L 301.684906 136.898817 
L 304.081469 148.765616 
L 306.478032 134.905964 
L 308.874595 141.687314 
L 311.271158 140.982507 
L 313.667721 137.126855 
L 316.064284 146.234675 
L 318.460847 146.207091 
L 320.85741 124.706572 
L 323.253973 147.343806 
L 325.650536 141.424867 
L 328.047098 134.404794 
L 330.443661 148.208809 
L 332.840224 132.00104 
L 335.236787 146.088374 
L 337.63335 174.580166 
L 340.029913 161.474314 
L 342.426476 141.209614 
L 344.823039 113.140823 
L 347.219602 104.969421 
L 349.616189 179.038557 
L 352.012752 122.707437 
L 354.409315 124.4348 
L 356.805878 142.927683 
L 359.202441 165.082369 
L 361.599004 115.844771 
L 363.995566 146.384961 
L 366.392129 167.96254 
L 368.788692 149.592644 
L 371.185255 169.339345 
L 373.581818 129.361693 
L 373.581818 129.361693 
" style="fill:none;stroke:#008000;stroke-linecap:square;stroke-width:0.3;"/>
   </g>
   <g id="line2d_27">
    <defs>
     <path d="M 0 1 
C 0.265203 1 0.51958 0.894634 0.707107 0.707107 
C 0.894634 0.51958 1 0.265203 1 0 
C 1 -0.265203 0.894634 -0.51958 0.707107 -0.707107 
C 0.51958 -0.894634 0.265203 -1 0 -1 
C -0.265203 -1 -0.51958 -0.894634 -0.707107 -0.707107 
C -0.894634 -0.51958 -1 -0.265203 -1 0 
C -1 0.265203 -0.894634 0.51958 -0.707107 0.707107 
C -0.51958 0.894634 -0.265203 1 0 1 
z
" id="m2d1560a3dc" style="stroke:#0000ff;"/>
    </defs>
    <g clip-path="url(#p31a8df5065)">
     <use style="fill:#0000ff;stroke:#0000ff;" x="170.672727" xlink:href="#m2d1560a3dc" y="143.280147"/>
     <use style="fill:#0000ff;stroke:#0000ff;" x="173.945454" xlink:href="#m2d1560a3dc" y="153.291912"/>
     <use style="fill:#0000ff;stroke:#0000ff;" x="177.218182" xlink:href="#m2d1560a3dc" y="123.358801"/>
     <use style="fill:#0000ff;stroke:#0000ff;" x="180.490909" xlink:href="#m2d1560a3dc" y="172.905738"/>
     <use style="fill:#0000ff;stroke:#0000ff;" x="183.763636" xlink:href="#m2d1560a3dc" y="104.253393"/>
     <use style="fill:#0000ff;stroke:#0000ff;" x="187.036363" xlink:href="#m2d1560a3dc" y="191.307039"/>
     <use style="fill:#0000ff;stroke:#0000ff;" x="190.30909" xlink:href="#m2d1560a3dc" y="86.745546"/>
     <use style="fill:#0000ff;stroke:#0000ff;" x="193.581817" xlink:href="#m2d1560a3dc" y="207.741934"/>
     <use style="fill:#0000ff;stroke:#0000ff;" x="196.854545" xlink:href="#m2d1560a3dc" y="71.552229"/>
     <use style="fill:#0000ff;stroke:#0000ff;" x="200.127272" xlink:href="#m2d1560a3dc" y="221.537754"/>
     <use style="fill:#0000ff;stroke:#0000ff;" x="203.399999" xlink:href="#m2d1560a3dc" y="59.295344"/>
     <use style="fill:#0000ff;stroke:#0000ff;" x="206.672726" xlink:href="#m2d1560a3dc" y="232.129702"/>
     <use style="fill:#0000ff;stroke:#0000ff;" x="209.945453" xlink:href="#m2d1560a3dc" y="50.476951"/>
     <use style="fill:#0000ff;stroke:#0000ff;" x="213.218181" xlink:href="#m2d1560a3dc" y="239.084166"/>
     <use style="fill:#0000ff;stroke:#0000ff;" x="216.490908" xlink:href="#m2d1560a3dc" y="45.457867"/>
     <use style="fill:#0000ff;stroke:#0000ff;" x="219.763635" xlink:href="#m2d1560a3dc" y="242.116364"/>
     <use style="fill:#0000ff;stroke:#0000ff;" x="223.036362" xlink:href="#m2d1560a3dc" y="44.443636"/>
     <use style="fill:#0000ff;stroke:#0000ff;" x="226.309092" xlink:href="#m2d1560a3dc" y="241.102151"/>
     <use style="fill:#0000ff;stroke:#0000ff;" x="229.581816" xlink:href="#m2d1560a3dc" y="47.475781"/>
     <use style="fill:#0000ff;stroke:#0000ff;" x="232.854547" xlink:href="#m2d1560a3dc" y="236.083067"/>
     <use style="fill:#0000ff;stroke:#0000ff;" x="236.127271" xlink:href="#m2d1560a3dc" y="54.43015"/>
     <use style="fill:#0000ff;stroke:#0000ff;" x="239.400001" xlink:href="#m2d1560a3dc" y="227.264674"/>
     <use style="fill:#0000ff;stroke:#0000ff;" x="242.672725" xlink:href="#m2d1560a3dc" y="65.022033"/>
     <use style="fill:#0000ff;stroke:#0000ff;" x="245.945455" xlink:href="#m2d1560a3dc" y="215.007789"/>
     <use style="fill:#0000ff;stroke:#0000ff;" x="249.218179" xlink:href="#m2d1560a3dc" y="78.817795"/>
     <use style="fill:#0000ff;stroke:#0000ff;" x="252.49091" xlink:href="#m2d1560a3dc" y="199.814471"/>
     <use style="fill:#0000ff;stroke:#0000ff;" x="255.763634" xlink:href="#m2d1560a3dc" y="95.252648"/>
     <use style="fill:#0000ff;stroke:#0000ff;" x="259.036364" xlink:href="#m2d1560a3dc" y="182.306625"/>
     <use style="fill:#0000ff;stroke:#0000ff;" x="262.309088" xlink:href="#m2d1560a3dc" y="113.65392"/>
     <use style="fill:#0000ff;stroke:#0000ff;" x="265.581818" xlink:href="#m2d1560a3dc" y="163.201216"/>
     <use style="fill:#0000ff;stroke:#0000ff;" x="268.854543" xlink:href="#m2d1560a3dc" y="133.26773"/>
     <use style="fill:#0000ff;stroke:#0000ff;" x="272.127273" xlink:href="#m2d1560a3dc" y="143.27987"/>
    </g>
   </g>
   <g id="patch_3">
    <path d="M 54 252 
L 54 34.56 
" style="fill:none;stroke:#000000;stroke-linecap:square;stroke-linejoin:miter;stroke-width:0.8;"/>
   </g>
   <g id="patch_4">
    <path d="M 388.8 252 
L 388.8 34.56 
" style="fill:none;stroke:#000000;stroke-linecap:square;stroke-linejoin:miter;stroke-width:0.8;"/>
   </g>
   <g id="patch_5">
    <path d="M 54 252 
L 388.8 252 
" style="fill:none;stroke:#000000;stroke-linecap:square;stroke-linejoin:miter;stroke-width:0.8;"/>
   </g>
   <g id="patch_6">
    <path d="M 54 34.56 
L 388.8 34.56 
" style="fill:none;stroke:#000000;stroke-linecap:square;stroke-linejoin:miter;stroke-width:0.8;"/>
   </g>
   <g id="text_17">
    <!-- Regression with MSE-loss -->
    <defs>
     <path d="M 44.390625 34.1875 
Q 47.5625 33.109375 50.5625 29.59375 
Q 53.5625 26.078125 56.59375 19.921875 
L 66.609375 0 
L 56 0 
L 46.6875 18.703125 
Q 43.0625 26.03125 39.671875 28.421875 
Q 36.28125 30.8125 30.421875 30.8125 
L 19.671875 30.8125 
L 19.671875 0 
L 9.8125 0 
L 9.8125 72.90625 
L 32.078125 72.90625 
Q 44.578125 72.90625 50.734375 67.671875 
Q 56.890625 62.453125 56.890625 51.90625 
Q 56.890625 45.015625 53.6875 40.46875 
Q 50.484375 35.9375 44.390625 34.1875 
M 19.671875 64.796875 
L 19.671875 38.921875 
L 32.078125 38.921875 
Q 39.203125 38.921875 42.84375 42.21875 
Q 46.484375 45.515625 46.484375 51.90625 
Q 46.484375 58.296875 42.84375 61.546875 
Q 39.203125 64.796875 32.078125 64.796875 
z
" id="DejaVuSans-52"/>
     <path d="M 56.203125 29.59375 
L 56.203125 25.203125 
L 14.890625 25.203125 
Q 15.484375 15.921875 20.484375 11.0625 
Q 25.484375 6.203125 34.421875 6.203125 
Q 39.59375 6.203125 44.453125 7.46875 
Q 49.3125 8.734375 54.109375 11.28125 
L 54.109375 2.78125 
Q 49.265625 0.734375 44.1875 -0.34375 
Q 39.109375 -1.421875 33.890625 -1.421875 
Q 20.796875 -1.421875 13.15625 6.1875 
Q 5.515625 13.8125 5.515625 26.8125 
Q 5.515625 40.234375 12.765625 48.109375 
Q 20.015625 56 32.328125 56 
Q 43.359375 56 49.78125 48.890625 
Q 56.203125 41.796875 56.203125 29.59375 
M 47.21875 32.234375 
Q 47.125 39.59375 43.09375 43.984375 
Q 39.0625 48.390625 32.421875 48.390625 
Q 24.90625 48.390625 20.390625 44.140625 
Q 15.875 39.890625 15.1875 32.171875 
z
" id="DejaVuSans-65"/>
     <path d="M 45.40625 27.984375 
Q 45.40625 37.75 41.375 43.109375 
Q 37.359375 48.484375 30.078125 48.484375 
Q 22.859375 48.484375 18.828125 43.109375 
Q 14.796875 37.75 14.796875 27.984375 
Q 14.796875 18.265625 18.828125 12.890625 
Q 22.859375 7.515625 30.078125 7.515625 
Q 37.359375 7.515625 41.375 12.890625 
Q 45.40625 18.265625 45.40625 27.984375 
M 54.390625 6.78125 
Q 54.390625 -7.171875 48.1875 -13.984375 
Q 42 -20.796875 29.203125 -20.796875 
Q 24.46875 -20.796875 20.265625 -20.09375 
Q 16.0625 -19.390625 12.109375 -17.921875 
L 12.109375 -9.1875 
Q 16.0625 -11.328125 19.921875 -12.34375 
Q 23.78125 -13.375 27.78125 -13.375 
Q 36.625 -13.375 41.015625 -8.765625 
Q 45.40625 -4.15625 45.40625 5.171875 
L 45.40625 9.625 
Q 42.625 4.78125 38.28125 2.390625 
Q 33.9375 0 27.875 0 
Q 17.828125 0 11.671875 7.65625 
Q 5.515625 15.328125 5.515625 27.984375 
Q 5.515625 40.671875 11.671875 48.328125 
Q 17.828125 56 27.875 56 
Q 33.9375 56 38.28125 53.609375 
Q 42.625 51.21875 45.40625 46.390625 
L 45.40625 54.6875 
L 54.390625 54.6875 
z
" id="DejaVuSans-67"/>
     <path d="M 41.109375 46.296875 
Q 39.59375 47.171875 37.8125 47.578125 
Q 36.03125 48 33.890625 48 
Q 26.265625 48 22.1875 43.046875 
Q 18.109375 38.09375 18.109375 28.8125 
L 18.109375 0 
L 9.078125 0 
L 9.078125 54.6875 
L 18.109375 54.6875 
L 18.109375 46.1875 
Q 20.953125 51.171875 25.484375 53.578125 
Q 30.03125 56 36.53125 56 
Q 37.453125 56 38.578125 55.875 
Q 39.703125 55.765625 41.0625 55.515625 
z
" id="DejaVuSans-72"/>
     <path d="M 44.28125 53.078125 
L 44.28125 44.578125 
Q 40.484375 46.53125 36.375 47.5 
Q 32.28125 48.484375 27.875 48.484375 
Q 21.1875 48.484375 17.84375 46.4375 
Q 14.5 44.390625 14.5 40.28125 
Q 14.5 37.15625 16.890625 35.375 
Q 19.28125 33.59375 26.515625 31.984375 
L 29.59375 31.296875 
Q 39.15625 29.25 43.1875 25.515625 
Q 47.21875 21.78125 47.21875 15.09375 
Q 47.21875 7.46875 41.1875 3.015625 
Q 35.15625 -1.421875 24.609375 -1.421875 
Q 20.21875 -1.421875 15.453125 -0.5625 
Q 10.6875 0.296875 5.421875 2 
L 5.421875 11.28125 
Q 10.40625 8.6875 15.234375 7.390625 
Q 20.0625 6.109375 24.8125 6.109375 
Q 31.15625 6.109375 34.5625 8.28125 
Q 37.984375 10.453125 37.984375 14.40625 
Q 37.984375 18.0625 35.515625 20.015625 
Q 33.0625 21.96875 24.703125 23.78125 
L 21.578125 24.515625 
Q 13.234375 26.265625 9.515625 29.90625 
Q 5.8125 33.546875 5.8125 39.890625 
Q 5.8125 47.609375 11.28125 51.796875 
Q 16.75 56 26.8125 56 
Q 31.78125 56 36.171875 55.265625 
Q 40.578125 54.546875 44.28125 53.078125 
" id="DejaVuSans-73"/>
     <path d="M 9.421875 54.6875 
L 18.40625 54.6875 
L 18.40625 0 
L 9.421875 0 
z
M 9.421875 75.984375 
L 18.40625 75.984375 
L 18.40625 64.59375 
L 9.421875 64.59375 
z
" id="DejaVuSans-69"/>
     <path d="M 30.609375 48.390625 
Q 23.390625 48.390625 19.1875 42.75 
Q 14.984375 37.109375 14.984375 27.296875 
Q 14.984375 17.484375 19.15625 11.84375 
Q 23.34375 6.203125 30.609375 6.203125 
Q 37.796875 6.203125 41.984375 11.859375 
Q 46.1875 17.53125 46.1875 27.296875 
Q 46.1875 37.015625 41.984375 42.703125 
Q 37.796875 48.390625 30.609375 48.390625 
M 30.609375 56 
Q 42.328125 56 49.015625 48.375 
Q 55.71875 40.765625 55.71875 27.296875 
Q 55.71875 13.875 49.015625 6.21875 
Q 42.328125 -1.421875 30.609375 -1.421875 
Q 18.84375 -1.421875 12.171875 6.21875 
Q 5.515625 13.875 5.515625 27.296875 
Q 5.515625 40.765625 12.171875 48.375 
Q 18.84375 56 30.609375 56 
" id="DejaVuSans-6f"/>
     <path d="M 54.890625 33.015625 
L 54.890625 0 
L 45.90625 0 
L 45.90625 32.71875 
Q 45.90625 40.484375 42.875 44.328125 
Q 39.84375 48.1875 33.796875 48.1875 
Q 26.515625 48.1875 22.3125 43.546875 
Q 18.109375 38.921875 18.109375 30.90625 
L 18.109375 0 
L 9.078125 0 
L 9.078125 54.6875 
L 18.109375 54.6875 
L 18.109375 46.1875 
Q 21.34375 51.125 25.703125 53.5625 
Q 30.078125 56 35.796875 56 
Q 45.21875 56 50.046875 50.171875 
Q 54.890625 44.34375 54.890625 33.015625 
" id="DejaVuSans-6e"/>
     <path id="DejaVuSans-20"/>
     <path d="M 4.203125 54.6875 
L 13.1875 54.6875 
L 24.421875 12.015625 
L 35.59375 54.6875 
L 46.1875 54.6875 
L 57.421875 12.015625 
L 68.609375 54.6875 
L 77.59375 54.6875 
L 63.28125 0 
L 52.6875 0 
L 40.921875 44.828125 
L 29.109375 0 
L 18.5 0 
z
" id="DejaVuSans-77"/>
     <path d="M 18.3125 70.21875 
L 18.3125 54.6875 
L 36.8125 54.6875 
L 36.8125 47.703125 
L 18.3125 47.703125 
L 18.3125 18.015625 
Q 18.3125 11.328125 20.140625 9.421875 
Q 21.96875 7.515625 27.59375 7.515625 
L 36.8125 7.515625 
L 36.8125 0 
L 27.59375 0 
Q 17.1875 0 13.234375 3.875 
Q 9.28125 7.765625 9.28125 18.015625 
L 9.28125 47.703125 
L 2.6875 47.703125 
L 2.6875 54.6875 
L 9.28125 54.6875 
L 9.28125 70.21875 
z
" id="DejaVuSans-74"/>
     <path d="M 54.890625 33.015625 
L 54.890625 0 
L 45.90625 0 
L 45.90625 32.71875 
Q 45.90625 40.484375 42.875 44.328125 
Q 39.84375 48.1875 33.796875 48.1875 
Q 26.515625 48.1875 22.3125 43.546875 
Q 18.109375 38.921875 18.109375 30.90625 
L 18.109375 0 
L 9.078125 0 
L 9.078125 75.984375 
L 18.109375 75.984375 
L 18.109375 46.1875 
Q 21.34375 51.125 25.703125 53.5625 
Q 30.078125 56 35.796875 56 
Q 45.21875 56 50.046875 50.171875 
Q 54.890625 44.34375 54.890625 33.015625 
" id="DejaVuSans-68"/>
     <path d="M 9.8125 72.90625 
L 24.515625 72.90625 
L 43.109375 23.296875 
L 61.8125 72.90625 
L 76.515625 72.90625 
L 76.515625 0 
L 66.890625 0 
L 66.890625 64.015625 
L 48.09375 14.015625 
L 38.1875 14.015625 
L 19.390625 64.015625 
L 19.390625 0 
L 9.8125 0 
z
" id="DejaVuSans-4d"/>
     <path d="M 53.515625 70.515625 
L 53.515625 60.890625 
Q 47.90625 63.578125 42.921875 64.890625 
Q 37.9375 66.21875 33.296875 66.21875 
Q 25.25 66.21875 20.875 63.09375 
Q 16.5 59.96875 16.5 54.203125 
Q 16.5 49.359375 19.40625 46.890625 
Q 22.3125 44.4375 30.421875 42.921875 
L 36.375 41.703125 
Q 47.40625 39.59375 52.65625 34.296875 
Q 57.90625 29 57.90625 20.125 
Q 57.90625 9.515625 50.796875 4.046875 
Q 43.703125 -1.421875 29.984375 -1.421875 
Q 24.8125 -1.421875 18.96875 -0.25 
Q 13.140625 0.921875 6.890625 3.21875 
L 6.890625 13.375 
Q 12.890625 10.015625 18.65625 8.296875 
Q 24.421875 6.59375 29.984375 6.59375 
Q 38.421875 6.59375 43.015625 9.90625 
Q 47.609375 13.234375 47.609375 19.390625 
Q 47.609375 24.75 44.3125 27.78125 
Q 41.015625 30.8125 33.5 32.328125 
L 27.484375 33.5 
Q 16.453125 35.6875 11.515625 40.375 
Q 6.59375 45.0625 6.59375 53.421875 
Q 6.59375 63.09375 13.40625 68.65625 
Q 20.21875 74.21875 32.171875 74.21875 
Q 37.3125 74.21875 42.625 73.28125 
Q 47.953125 72.359375 53.515625 70.515625 
" id="DejaVuSans-53"/>
     <path d="M 9.8125 72.90625 
L 55.90625 72.90625 
L 55.90625 64.59375 
L 19.671875 64.59375 
L 19.671875 43.015625 
L 54.390625 43.015625 
L 54.390625 34.71875 
L 19.671875 34.71875 
L 19.671875 8.296875 
L 56.78125 8.296875 
L 56.78125 0 
L 9.8125 0 
z
" id="DejaVuSans-45"/>
     <path d="M 4.890625 31.390625 
L 31.203125 31.390625 
L 31.203125 23.390625 
L 4.890625 23.390625 
z
" id="DejaVuSans-2d"/>
     <path d="M 9.421875 75.984375 
L 18.40625 75.984375 
L 18.40625 0 
L 9.421875 0 
z
" id="DejaVuSans-6c"/>
    </defs>
    <g transform="translate(145.111875 28.56)scale(0.12 -0.12)">
     <use xlink:href="#DejaVuSans-52"/>
     <use x="69.419922" xlink:href="#DejaVuSans-65"/>
     <use x="130.943359" xlink:href="#DejaVuSans-67"/>
     <use x="194.419922" xlink:href="#DejaVuSans-72"/>
     <use x="235.501953" xlink:href="#DejaVuSans-65"/>
     <use x="297.025391" xlink:href="#DejaVuSans-73"/>
     <use x="349.125" xlink:href="#DejaVuSans-73"/>
     <use x="401.224609" xlink:href="#DejaVuSans-69"/>
     <use x="429.007812" xlink:href="#DejaVuSans-6f"/>
     <use x="490.189453" xlink:href="#DejaVuSans-6e"/>
     <use x="553.568359" xlink:href="#DejaVuSans-20"/>
     <use x="585.355469" xlink:href="#DejaVuSans-77"/>
     <use x="667.142578" xlink:href="#DejaVuSans-69"/>
     <use x="694.925781" xlink:href="#DejaVuSans-74"/>
     <use x="734.134766" xlink:href="#DejaVuSans-68"/>
     <use x="797.513672" xlink:href="#DejaVuSans-20"/>
     <use x="829.300781" xlink:href="#DejaVuSans-4d"/>
     <use x="915.580078" xlink:href="#DejaVuSans-53"/>
     <use x="979.056641" xlink:href="#DejaVuSans-45"/>
     <use x="1042.240234" xlink:href="#DejaVuSans-2d"/>
     <use x="1078.324219" xlink:href="#DejaVuSans-6c"/>
     <use x="1106.107422" xlink:href="#DejaVuSans-6f"/>
     <use x="1167.289062" xlink:href="#DejaVuSans-73"/>
     <use x="1219.388672" xlink:href="#DejaVuSans-73"/>
    </g>
   </g>
   <g id="legend_1">
    <g id="patch_7">
     <path d="M 294.521875 71.91625 
L 381.8 71.91625 
Q 383.8 71.91625 383.8 69.91625 
L 383.8 41.56 
Q 383.8 39.56 381.8 39.56 
L 294.521875 39.56 
Q 292.521875 39.56 292.521875 41.56 
L 292.521875 69.91625 
Q 292.521875 71.91625 294.521875 71.91625 
z
" style="fill:#ffffff;opacity:0.8;stroke:#cccccc;stroke-linejoin:miter;"/>
    </g>
    <g id="line2d_28">
     <path d="M 296.521875 47.658437 
L 316.521875 47.658437 
" style="fill:none;stroke:#008000;stroke-linecap:square;stroke-width:0.3;"/>
    </g>
    <g id="line2d_29"/>
    <g id="text_18">
     <!-- Predictions -->
     <defs>
      <path d="M 19.671875 64.796875 
L 19.671875 37.40625 
L 32.078125 37.40625 
Q 38.96875 37.40625 42.71875 40.96875 
Q 46.484375 44.53125 46.484375 51.125 
Q 46.484375 57.671875 42.71875 61.234375 
Q 38.96875 64.796875 32.078125 64.796875 
z
M 9.8125 72.90625 
L 32.078125 72.90625 
Q 44.34375 72.90625 50.609375 67.359375 
Q 56.890625 61.8125 56.890625 51.125 
Q 56.890625 40.328125 50.609375 34.8125 
Q 44.34375 29.296875 32.078125 29.296875 
L 19.671875 29.296875 
L 19.671875 0 
L 9.8125 0 
z
" id="DejaVuSans-50"/>
      <path d="M 45.40625 46.390625 
L 45.40625 75.984375 
L 54.390625 75.984375 
L 54.390625 0 
L 45.40625 0 
L 45.40625 8.203125 
Q 42.578125 3.328125 38.25 0.953125 
Q 33.9375 -1.421875 27.875 -1.421875 
Q 17.96875 -1.421875 11.734375 6.484375 
Q 5.515625 14.40625 5.515625 27.296875 
Q 5.515625 40.1875 11.734375 48.09375 
Q 17.96875 56 27.875 56 
Q 33.9375 56 38.25 53.625 
Q 42.578125 51.265625 45.40625 46.390625 
M 14.796875 27.296875 
Q 14.796875 17.390625 18.875 11.75 
Q 22.953125 6.109375 30.078125 6.109375 
Q 37.203125 6.109375 41.296875 11.75 
Q 45.40625 17.390625 45.40625 27.296875 
Q 45.40625 37.203125 41.296875 42.84375 
Q 37.203125 48.484375 30.078125 48.484375 
Q 22.953125 48.484375 18.875 42.84375 
Q 14.796875 37.203125 14.796875 27.296875 
" id="DejaVuSans-64"/>
      <path d="M 48.78125 52.59375 
L 48.78125 44.1875 
Q 44.96875 46.296875 41.140625 47.34375 
Q 37.3125 48.390625 33.40625 48.390625 
Q 24.65625 48.390625 19.8125 42.84375 
Q 14.984375 37.3125 14.984375 27.296875 
Q 14.984375 17.28125 19.8125 11.734375 
Q 24.65625 6.203125 33.40625 6.203125 
Q 37.3125 6.203125 41.140625 7.25 
Q 44.96875 8.296875 48.78125 10.40625 
L 48.78125 2.09375 
Q 45.015625 0.34375 40.984375 -0.53125 
Q 36.96875 -1.421875 32.421875 -1.421875 
Q 20.0625 -1.421875 12.78125 6.34375 
Q 5.515625 14.109375 5.515625 27.296875 
Q 5.515625 40.671875 12.859375 48.328125 
Q 20.21875 56 33.015625 56 
Q 37.15625 56 41.109375 55.140625 
Q 45.0625 54.296875 48.78125 52.59375 
" id="DejaVuSans-63"/>
     </defs>
     <g transform="translate(324.521875 51.158437)scale(0.1 -0.1)">
      <use xlink:href="#DejaVuSans-50"/>
      <use x="60.287109" xlink:href="#DejaVuSans-72"/>
      <use x="101.369141" xlink:href="#DejaVuSans-65"/>
      <use x="162.892578" xlink:href="#DejaVuSans-64"/>
      <use x="226.369141" xlink:href="#DejaVuSans-69"/>
      <use x="254.152344" xlink:href="#DejaVuSans-63"/>
      <use x="309.132812" xlink:href="#DejaVuSans-74"/>
      <use x="348.341797" xlink:href="#DejaVuSans-69"/>
      <use x="376.125" xlink:href="#DejaVuSans-6f"/>
      <use x="437.306641" xlink:href="#DejaVuSans-6e"/>
      <use x="500.685547" xlink:href="#DejaVuSans-73"/>
     </g>
    </g>
    <g id="line2d_30"/>
    <g id="line2d_31">
     <g>
      <use style="fill:#0000ff;stroke:#0000ff;" x="306.521875" xlink:href="#m2d1560a3dc" y="62.336562"/>
     </g>
    </g>
    <g id="text_19">
     <!-- Targets -->
     <defs>
      <path d="M -0.296875 72.90625 
L 61.375 72.90625 
L 61.375 64.59375 
L 35.5 64.59375 
L 35.5 0 
L 25.59375 0 
L 25.59375 64.59375 
L -0.296875 64.59375 
z
" id="DejaVuSans-54"/>
      <path d="M 34.28125 27.484375 
Q 23.390625 27.484375 19.1875 25 
Q 14.984375 22.515625 14.984375 16.5 
Q 14.984375 11.71875 18.140625 8.90625 
Q 21.296875 6.109375 26.703125 6.109375 
Q 34.1875 6.109375 38.703125 11.40625 
Q 43.21875 16.703125 43.21875 25.484375 
L 43.21875 27.484375 
z
M 52.203125 31.203125 
L 52.203125 0 
L 43.21875 0 
L 43.21875 8.296875 
Q 40.140625 3.328125 35.546875 0.953125 
Q 30.953125 -1.421875 24.3125 -1.421875 
Q 15.921875 -1.421875 10.953125 3.296875 
Q 6 8.015625 6 15.921875 
Q 6 25.140625 12.171875 29.828125 
Q 18.359375 34.515625 30.609375 34.515625 
L 43.21875 34.515625 
L 43.21875 35.40625 
Q 43.21875 41.609375 39.140625 45 
Q 35.0625 48.390625 27.6875 48.390625 
Q 23 48.390625 18.546875 47.265625 
Q 14.109375 46.140625 10.015625 43.890625 
L 10.015625 52.203125 
Q 14.9375 54.109375 19.578125 55.046875 
Q 24.21875 56 28.609375 56 
Q 40.484375 56 46.34375 49.84375 
Q 52.203125 43.703125 52.203125 31.203125 
" id="DejaVuSans-61"/>
     </defs>
     <g transform="translate(324.521875 65.836562)scale(0.1 -0.1)">
      <use xlink:href="#DejaVuSans-54"/>
      <use x="60.833984" xlink:href="#DejaVuSans-61"/>
      <use x="122.113281" xlink:href="#DejaVuSans-72"/>
      <use x="163.210938" xlink:href="#DejaVuSans-67"/>
      <use x="226.6875" xlink:href="#DejaVuSans-65"/>
      <use x="288.210938" xlink:href="#DejaVuSans-74"/>
      <use x="327.419922" xlink:href="#DejaVuSans-73"/>
     </g>
    </g>
   </g>
  </g>
 </g>
 <defs>
  <clipPath id="p31a8df5065">
   <rect height="217.44" width="334.8" x="54" y="34.56"/>
  </clipPath>
 </defs>
</svg>
